<mxfile host="Electron" agent="Mozilla/5.0 (Windows NT 10.0; Win64; x64) AppleWebKit/537.36 (KHTML, like Gecko) draw.io/24.7.8 Chrome/128.0.6613.36 Electron/32.0.1 Safari/537.36" version="24.7.8" pages="4">
  <diagram name="NomesAleatorios" id="-hM4qnCLmO7vTV76rrKW">
    <mxGraphModel dx="989" dy="582" grid="0" gridSize="10" guides="1" tooltips="1" connect="1" arrows="1" fold="1" page="0" pageScale="1" pageWidth="827" pageHeight="1169" math="0" shadow="0">
      <root>
        <mxCell id="0" />
        <mxCell id="1" parent="0" />
        <mxCell id="9B_tQ2D-0QTi4ihXgOyW-10" value="&lt;div&gt;Bryan&lt;/div&gt;&lt;div&gt;Gael&lt;/div&gt;&lt;div&gt;Melina&lt;/div&gt;&lt;div&gt;Maria Fernanda&lt;/div&gt;&lt;div&gt;Ana Luísa&lt;/div&gt;&lt;div&gt;Murilo&lt;/div&gt;&lt;div&gt;Helena&lt;/div&gt;&lt;div&gt;Elisa&lt;/div&gt;&lt;div&gt;Ana Cecília&lt;/div&gt;&lt;div&gt;Joana&lt;/div&gt;&lt;div&gt;João Gabriel&lt;/div&gt;&lt;div&gt;Augusto&lt;/div&gt;&lt;div&gt;Ryan&lt;/div&gt;&lt;div&gt;Emanuel&lt;/div&gt;&lt;div&gt;Kalel&lt;/div&gt;&lt;div&gt;Heloísa&lt;/div&gt;&lt;div&gt;Isabel&lt;/div&gt;&lt;div&gt;Henry&lt;/div&gt;&lt;div&gt;Milena&lt;/div&gt;&lt;div&gt;Mathias&lt;/div&gt;&lt;div&gt;Mariah&lt;/div&gt;&lt;div&gt;Davi Luiz&lt;/div&gt;&lt;div&gt;Rael&lt;/div&gt;&lt;div&gt;Raul&lt;/div&gt;&lt;div&gt;Mirella&lt;/div&gt;" style="text;html=1;align=center;verticalAlign=middle;whiteSpace=wrap;rounded=0;fontFamily=Architects Daughter;fontSource=https%3A%2F%2Ffonts.googleapis.com%2Fcss%3Ffamily%3DArchitects%2BDaughter;" vertex="1" parent="1">
          <mxGeometry x="360" y="330" width="100" height="30" as="geometry" />
        </mxCell>
        <mxCell id="9B_tQ2D-0QTi4ihXgOyW-11" value="&lt;div&gt;Dominic&lt;/div&gt;&lt;div&gt;Diana&lt;/div&gt;&lt;div&gt;Luna&lt;/div&gt;&lt;div&gt;Ravi&lt;/div&gt;&lt;div&gt;Pérola&lt;/div&gt;&lt;div&gt;Maria Júlia&lt;/div&gt;&lt;div&gt;Felipe&lt;/div&gt;&lt;div&gt;Emanuelly&lt;/div&gt;&lt;div&gt;Zoe&lt;/div&gt;&lt;div&gt;Ana Clara&lt;/div&gt;&lt;div&gt;Maria Eduarda&lt;/div&gt;&lt;div&gt;Sophia&lt;/div&gt;&lt;div&gt;Benício&lt;/div&gt;&lt;div&gt;Tomás&lt;/div&gt;&lt;div&gt;Matheus&lt;/div&gt;&lt;div&gt;Luiz Miguel&lt;/div&gt;&lt;div&gt;Sarah&lt;/div&gt;&lt;div&gt;Melissa&lt;/div&gt;&lt;div&gt;Caleb&lt;/div&gt;&lt;div&gt;Leonardo&lt;/div&gt;&lt;div&gt;Samuel&lt;/div&gt;&lt;div&gt;Cauã&lt;/div&gt;&lt;div&gt;João Pedro&lt;/div&gt;&lt;div&gt;Maria Helena&lt;/div&gt;&lt;div&gt;Ravi Lucca&lt;/div&gt;" style="text;html=1;align=center;verticalAlign=middle;whiteSpace=wrap;rounded=0;fontFamily=Architects Daughter;fontSource=https%3A%2F%2Ffonts.googleapis.com%2Fcss%3Ffamily%3DArchitects%2BDaughter;" vertex="1" parent="1">
          <mxGeometry x="450" y="330" width="100" height="30" as="geometry" />
        </mxCell>
        <mxCell id="9B_tQ2D-0QTi4ihXgOyW-12" value="&lt;div&gt;Elis&lt;/div&gt;&lt;div&gt;Betina&lt;/div&gt;&lt;div&gt;Agatha&lt;/div&gt;&lt;div&gt;Maitê&lt;/div&gt;&lt;div&gt;Cecília&lt;/div&gt;&lt;div&gt;Maria Vitória&lt;/div&gt;&lt;div&gt;Laura&lt;/div&gt;&lt;div&gt;Anthony&lt;/div&gt;&lt;div&gt;João Lucas&lt;/div&gt;&lt;div&gt;Eduarda&lt;/div&gt;&lt;div&gt;Lavínia&lt;/div&gt;&lt;div&gt;Valentim&lt;/div&gt;&lt;div&gt;Maria Laura&lt;/div&gt;&lt;div&gt;Davi&lt;/div&gt;&lt;div&gt;Maria Valentina&lt;/div&gt;&lt;div&gt;Rebeca&lt;/div&gt;&lt;div&gt;Heitor&lt;/div&gt;&lt;div&gt;Beatriz&lt;/div&gt;&lt;div&gt;Henrique&lt;/div&gt;&lt;div&gt;Maria Alice&lt;/div&gt;&lt;div&gt;José Miguel&lt;/div&gt;&lt;div&gt;Antônio&lt;/div&gt;&lt;div&gt;Lorenzo&lt;/div&gt;&lt;div&gt;Noah&lt;/div&gt;&lt;div&gt;Thomas&lt;/div&gt;" style="text;html=1;align=center;verticalAlign=middle;whiteSpace=wrap;rounded=0;fontFamily=Architects Daughter;fontSource=https%3A%2F%2Ffonts.googleapis.com%2Fcss%3Ffamily%3DArchitects%2BDaughter;" vertex="1" parent="1">
          <mxGeometry x="540" y="330" width="100" height="30" as="geometry" />
        </mxCell>
        <mxCell id="9B_tQ2D-0QTi4ihXgOyW-13" value="&lt;div&gt;Eloá&lt;/div&gt;&lt;div&gt;Gabriela&lt;/div&gt;&lt;div&gt;Yuri&lt;/div&gt;&lt;div&gt;Mariana&lt;/div&gt;&lt;div&gt;Ana Beatriz&lt;/div&gt;&lt;div&gt;Hadassa&lt;/div&gt;&lt;div&gt;Luan&lt;/div&gt;&lt;div&gt;Aurora&lt;/div&gt;&lt;div&gt;Ana Laura&lt;/div&gt;&lt;div&gt;Nicole&lt;/div&gt;&lt;div&gt;Louise&lt;/div&gt;&lt;div&gt;João Guilherme&lt;/div&gt;&lt;div&gt;Theodoro&lt;/div&gt;&lt;div&gt;Esther&lt;/div&gt;&lt;div&gt;Rafaela&lt;/div&gt;&lt;div&gt;Enrico&lt;/div&gt;&lt;div&gt;Valentina&lt;/div&gt;&lt;div&gt;Ayla&lt;/div&gt;&lt;div&gt;Otávio&lt;/div&gt;&lt;div&gt;Apollo&lt;/div&gt;&lt;div&gt;Lara&lt;/div&gt;&lt;div&gt;Luísa&lt;/div&gt;&lt;div&gt;Davi Lucas&lt;/div&gt;&lt;div&gt;Malu&lt;/div&gt;&lt;div&gt;Gabriel&lt;/div&gt;" style="text;html=1;align=center;verticalAlign=middle;whiteSpace=wrap;rounded=0;fontFamily=Architects Daughter;fontSource=https%3A%2F%2Ffonts.googleapis.com%2Fcss%3Ffamily%3DArchitects%2BDaughter;" vertex="1" parent="1">
          <mxGeometry x="620" y="330" width="100" height="30" as="geometry" />
        </mxCell>
        <mxCell id="9B_tQ2D-0QTi4ihXgOyW-14" value="&lt;div&gt;Maria Cecília&lt;/div&gt;&lt;div&gt;Lorena&lt;/div&gt;&lt;div&gt;Eduardo&lt;/div&gt;&lt;div&gt;Bella&lt;/div&gt;&lt;div&gt;Laís&lt;/div&gt;&lt;div&gt;José&lt;/div&gt;&lt;div&gt;Letícia&lt;/div&gt;&lt;div&gt;Rafael&lt;/div&gt;&lt;div&gt;Ana Lívia&lt;/div&gt;&lt;div&gt;Olívia&lt;/div&gt;&lt;div&gt;Bernardo&lt;/div&gt;&lt;div&gt;Maria Luísa&lt;/div&gt;&lt;div&gt;Alícia&lt;/div&gt;&lt;div&gt;Daniel&lt;/div&gt;&lt;div&gt;Vitória&lt;/div&gt;&lt;div&gt;Luiz Henrique&lt;/div&gt;&lt;div&gt;Alice&lt;/div&gt;&lt;div&gt;Benjamin&lt;/div&gt;&lt;div&gt;João&lt;/div&gt;&lt;div&gt;Anthony Gabriel&lt;/div&gt;&lt;div&gt;Matteo&lt;/div&gt;&lt;div&gt;Bianca&lt;/div&gt;&lt;div&gt;Ana Júlia&lt;/div&gt;&lt;div&gt;Pedro Henrique&lt;/div&gt;&lt;div&gt;Léonovo&lt;/div&gt;" style="text;html=1;align=center;verticalAlign=middle;whiteSpace=wrap;rounded=0;fontFamily=Architects Daughter;fontSource=https%3A%2F%2Ffonts.googleapis.com%2Fcss%3Ffamily%3DArchitects%2BDaughter;" vertex="1" parent="1">
          <mxGeometry x="710" y="330" width="100" height="30" as="geometry" />
        </mxCell>
        <mxCell id="9B_tQ2D-0QTi4ihXgOyW-15" value="&lt;div&gt;Vitor&lt;/div&gt;&lt;div&gt;José Pedro&lt;/div&gt;&lt;div&gt;Bento&lt;/div&gt;&lt;div&gt;Clarice&lt;/div&gt;&lt;div&gt;Thales&lt;/div&gt;&lt;div&gt;Thiago&lt;/div&gt;&lt;div&gt;Giovanna&lt;/div&gt;&lt;div&gt;Lucca&lt;/div&gt;&lt;div&gt;Heloíse&lt;/div&gt;&lt;div&gt;Maria Clara&lt;/div&gt;&lt;div&gt;Caio&lt;/div&gt;&lt;div&gt;João Miguel&lt;/div&gt;&lt;div&gt;Miguel&lt;/div&gt;&lt;div&gt;Arthur&lt;/div&gt;&lt;div&gt;Nathan&lt;/div&gt;&lt;div&gt;Vicente&lt;/div&gt;&lt;div&gt;Maria Isis&lt;/div&gt;&lt;div&gt;Isabella&lt;/div&gt;&lt;div&gt;Melinda&lt;/div&gt;&lt;div&gt;Jade&lt;/div&gt;&lt;div&gt;Breno&lt;/div&gt;&lt;div&gt;Lucas&lt;/div&gt;&lt;div&gt;Vinícius&lt;/div&gt;&lt;div&gt;Ana Vitória&lt;/div&gt;&lt;div&gt;Antonella&lt;/div&gt;" style="text;html=1;align=center;verticalAlign=middle;whiteSpace=wrap;rounded=0;fontFamily=Architects Daughter;fontSource=https%3A%2F%2Ffonts.googleapis.com%2Fcss%3Ffamily%3DArchitects%2BDaughter;" vertex="1" parent="1">
          <mxGeometry x="790" y="330" width="100" height="30" as="geometry" />
        </mxCell>
        <mxCell id="9B_tQ2D-0QTi4ihXgOyW-16" value="João Vitor&#xa;Manuela&#xa;Maria Liz&#xa;Liam&#xa;Clara&#xa;Marina&#xa;Maria&#xa;Dom&#xa;Isaac&#xa;Alana&#xa;Oliver&#xa;Enzo Gabriel&#xa;Kauê&#xa;Maria Elisa&#xa;Ana&#xa;Maria Heloísa&#xa;Yasmin&#xa;Martin&#xa;Josué&#xa;Enzo&#xa;Liz&#xa;Théo&#xa;Emilly&#xa;Erick&#xa;Arthur Miguel" style="text;html=1;align=center;verticalAlign=middle;whiteSpace=wrap;rounded=0;fontFamily=Architects Daughter;fontSource=https%3A%2F%2Ffonts.googleapis.com%2Fcss%3Ffamily%3DArchitects%2BDaughter;" vertex="1" parent="1">
          <mxGeometry x="870" y="330" width="100" height="30" as="geometry" />
        </mxCell>
        <mxCell id="9B_tQ2D-0QTi4ihXgOyW-17" value="Yan&#xa;Davi Miguel&#xa;Isabelly&#xa;Francisco&#xa;Joaquim&#xa;Nicolas&#xa;Guilherme&#xa;Isis&#xa;Stella&#xa;Isadora&#xa;Ayla Sophia&#xa;Estevão&#xa;Júlia&#xa;Catarina&#xa;Pietro&#xa;Israel&#xa;Davi Lucca&#xa;Pedro&#xa;Chloe&#xa;Ana Liz&#xa;Levi&#xa;Gustavo&#xa;Lívia&#xa;Maya&#xa;Asafe" style="text;html=1;align=center;verticalAlign=middle;whiteSpace=wrap;rounded=0;fontFamily=Architects Daughter;fontSource=https%3A%2F%2Ffonts.googleapis.com%2Fcss%3Ffamily%3DArchitects%2BDaughter;" vertex="1" parent="1">
          <mxGeometry x="950" y="330" width="100" height="30" as="geometry" />
        </mxCell>
      </root>
    </mxGraphModel>
  </diagram>
  <diagram name="NomesAleatorios-Encontrado" id="IKw3LSEs6s8tWe2sc0yf">
    <mxGraphModel dx="989" dy="582" grid="1" gridSize="10" guides="1" tooltips="1" connect="1" arrows="1" fold="1" page="0" pageScale="1" pageWidth="827" pageHeight="1169" math="0" shadow="0">
      <root>
        <mxCell id="JYq7Gk4Q5SPEg6qFTbgV-0" />
        <mxCell id="JYq7Gk4Q5SPEg6qFTbgV-1" parent="JYq7Gk4Q5SPEg6qFTbgV-0" />
        <mxCell id="JYq7Gk4Q5SPEg6qFTbgV-2" value="&lt;div&gt;Bryan&lt;/div&gt;&lt;div&gt;Gael&lt;/div&gt;&lt;div&gt;Melina&lt;/div&gt;&lt;div&gt;Maria Fernanda&lt;/div&gt;&lt;div&gt;Ana Luísa&lt;/div&gt;&lt;div&gt;Murilo&lt;/div&gt;&lt;div&gt;Helena&lt;/div&gt;&lt;div&gt;Elisa&lt;/div&gt;&lt;div&gt;Ana Cecília&lt;/div&gt;&lt;div&gt;Joana&lt;/div&gt;&lt;div&gt;João Gabriel&lt;/div&gt;&lt;div&gt;Augusto&lt;/div&gt;&lt;div&gt;Ryan&lt;/div&gt;&lt;div&gt;Emanuel&lt;/div&gt;&lt;div&gt;Kalel&lt;/div&gt;&lt;div&gt;Heloísa&lt;/div&gt;&lt;div&gt;Isabel&lt;/div&gt;&lt;div&gt;Henry&lt;/div&gt;&lt;div&gt;Milena&lt;/div&gt;&lt;div&gt;Mathias&lt;/div&gt;&lt;div&gt;Mariah&lt;/div&gt;&lt;div&gt;Davi Luiz&lt;/div&gt;&lt;div&gt;Rael&lt;/div&gt;&lt;div&gt;Raul&lt;/div&gt;&lt;div&gt;Mirella&lt;/div&gt;" style="text;html=1;align=center;verticalAlign=middle;whiteSpace=wrap;rounded=0;fontFamily=Architects Daughter;fontSource=https%3A%2F%2Ffonts.googleapis.com%2Fcss%3Ffamily%3DArchitects%2BDaughter;" vertex="1" parent="JYq7Gk4Q5SPEg6qFTbgV-1">
          <mxGeometry x="360" y="330" width="100" height="30" as="geometry" />
        </mxCell>
        <mxCell id="JYq7Gk4Q5SPEg6qFTbgV-3" value="&lt;div&gt;Dominic&lt;/div&gt;&lt;div&gt;Diana&lt;/div&gt;&lt;div&gt;Luna&lt;/div&gt;&lt;div&gt;Ravi&lt;/div&gt;&lt;div&gt;Pérola&lt;/div&gt;&lt;div&gt;Maria Júlia&lt;/div&gt;&lt;div&gt;Felipe&lt;/div&gt;&lt;div&gt;Emanuelly&lt;/div&gt;&lt;div&gt;Zoe&lt;/div&gt;&lt;div&gt;Ana Clara&lt;/div&gt;&lt;div&gt;Maria Eduarda&lt;/div&gt;&lt;div&gt;Sophia&lt;/div&gt;&lt;div&gt;Benício&lt;/div&gt;&lt;div&gt;Tomás&lt;/div&gt;&lt;div&gt;Matheus&lt;/div&gt;&lt;div&gt;Luiz Miguel&lt;/div&gt;&lt;div&gt;Sarah&lt;/div&gt;&lt;div&gt;Melissa&lt;/div&gt;&lt;div&gt;Caleb&lt;/div&gt;&lt;div&gt;Leonardo&lt;/div&gt;&lt;div&gt;Samuel&lt;/div&gt;&lt;div&gt;Cauã&lt;/div&gt;&lt;div&gt;João Pedro&lt;/div&gt;&lt;div&gt;Maria Helena&lt;/div&gt;&lt;div&gt;Ravi Lucca&lt;/div&gt;" style="text;html=1;align=center;verticalAlign=middle;whiteSpace=wrap;rounded=0;fontFamily=Architects Daughter;fontSource=https%3A%2F%2Ffonts.googleapis.com%2Fcss%3Ffamily%3DArchitects%2BDaughter;" vertex="1" parent="JYq7Gk4Q5SPEg6qFTbgV-1">
          <mxGeometry x="450" y="330" width="100" height="30" as="geometry" />
        </mxCell>
        <mxCell id="JYq7Gk4Q5SPEg6qFTbgV-4" value="&lt;div&gt;Elis&lt;/div&gt;&lt;div&gt;Betina&lt;/div&gt;&lt;div&gt;Agatha&lt;/div&gt;&lt;div&gt;Maitê&lt;/div&gt;&lt;div&gt;Cecília&lt;/div&gt;&lt;div&gt;Maria Vitória&lt;/div&gt;&lt;div&gt;Laura&lt;/div&gt;&lt;div&gt;Anthony&lt;/div&gt;&lt;div&gt;João Lucas&lt;/div&gt;&lt;div&gt;Eduarda&lt;/div&gt;&lt;div&gt;Lavínia&lt;/div&gt;&lt;div&gt;Valentim&lt;/div&gt;&lt;div&gt;Maria Laura&lt;/div&gt;&lt;div&gt;Davi&lt;/div&gt;&lt;div&gt;Maria Valentina&lt;/div&gt;&lt;div&gt;Rebeca&lt;/div&gt;&lt;div&gt;Heitor&lt;/div&gt;&lt;div&gt;Beatriz&lt;/div&gt;&lt;div&gt;Henrique&lt;/div&gt;&lt;div&gt;Maria Alice&lt;/div&gt;&lt;div&gt;José Miguel&lt;/div&gt;&lt;div&gt;Antônio&lt;/div&gt;&lt;div&gt;Lorenzo&lt;/div&gt;&lt;div&gt;Noah&lt;/div&gt;&lt;div&gt;Thomas&lt;/div&gt;" style="text;html=1;align=center;verticalAlign=middle;whiteSpace=wrap;rounded=0;fontFamily=Architects Daughter;fontSource=https%3A%2F%2Ffonts.googleapis.com%2Fcss%3Ffamily%3DArchitects%2BDaughter;" vertex="1" parent="JYq7Gk4Q5SPEg6qFTbgV-1">
          <mxGeometry x="540" y="330" width="100" height="30" as="geometry" />
        </mxCell>
        <mxCell id="JYq7Gk4Q5SPEg6qFTbgV-5" value="&lt;div&gt;Eloá&lt;/div&gt;&lt;div&gt;Gabriela&lt;/div&gt;&lt;div&gt;Yuri&lt;/div&gt;&lt;div&gt;Mariana&lt;/div&gt;&lt;div&gt;Ana Beatriz&lt;/div&gt;&lt;div&gt;Hadassa&lt;/div&gt;&lt;div&gt;Luan&lt;/div&gt;&lt;div&gt;Aurora&lt;/div&gt;&lt;div&gt;Ana Laura&lt;/div&gt;&lt;div&gt;Nicole&lt;/div&gt;&lt;div&gt;Louise&lt;/div&gt;&lt;div&gt;João Guilherme&lt;/div&gt;&lt;div&gt;Theodoro&lt;/div&gt;&lt;div&gt;Esther&lt;/div&gt;&lt;div&gt;Rafaela&lt;/div&gt;&lt;div&gt;Enrico&lt;/div&gt;&lt;div&gt;Valentina&lt;/div&gt;&lt;div&gt;Ayla&lt;/div&gt;&lt;div&gt;Otávio&lt;/div&gt;&lt;div&gt;Apollo&lt;/div&gt;&lt;div&gt;Lara&lt;/div&gt;&lt;div&gt;Luísa&lt;/div&gt;&lt;div&gt;Davi Lucas&lt;/div&gt;&lt;div&gt;Malu&lt;/div&gt;&lt;div&gt;Gabriel&lt;/div&gt;" style="text;html=1;align=center;verticalAlign=middle;whiteSpace=wrap;rounded=0;fontFamily=Architects Daughter;fontSource=https%3A%2F%2Ffonts.googleapis.com%2Fcss%3Ffamily%3DArchitects%2BDaughter;" vertex="1" parent="JYq7Gk4Q5SPEg6qFTbgV-1">
          <mxGeometry x="620" y="330" width="100" height="30" as="geometry" />
        </mxCell>
        <mxCell id="JYq7Gk4Q5SPEg6qFTbgV-6" value="&lt;div&gt;Maria Cecília&lt;/div&gt;&lt;div&gt;Lorena&lt;/div&gt;&lt;div&gt;Eduardo&lt;/div&gt;&lt;div&gt;Bella&lt;/div&gt;&lt;div&gt;Laís&lt;/div&gt;&lt;div&gt;José&lt;/div&gt;&lt;div&gt;Letícia&lt;/div&gt;&lt;div&gt;Rafael&lt;/div&gt;&lt;div&gt;Ana Lívia&lt;/div&gt;&lt;div&gt;Olívia&lt;/div&gt;&lt;div&gt;Bernardo&lt;/div&gt;&lt;div&gt;Maria Luísa&lt;/div&gt;&lt;div&gt;Alícia&lt;/div&gt;&lt;div&gt;Daniel&lt;/div&gt;&lt;div&gt;Vitória&lt;/div&gt;&lt;div&gt;Luiz Henrique&lt;/div&gt;&lt;div&gt;Alice&lt;/div&gt;&lt;div&gt;Benjamin&lt;/div&gt;&lt;div&gt;João&lt;/div&gt;&lt;div&gt;Anthony Gabriel&lt;/div&gt;&lt;div&gt;Matteo&lt;/div&gt;&lt;div&gt;Bianca&lt;/div&gt;&lt;div&gt;Ana Júlia&lt;/div&gt;&lt;div&gt;Pedro Henrique&lt;/div&gt;&lt;div&gt;Léonovo&lt;/div&gt;" style="text;html=1;align=center;verticalAlign=middle;whiteSpace=wrap;rounded=0;fontFamily=Architects Daughter;fontSource=https%3A%2F%2Ffonts.googleapis.com%2Fcss%3Ffamily%3DArchitects%2BDaughter;" vertex="1" parent="JYq7Gk4Q5SPEg6qFTbgV-1">
          <mxGeometry x="710" y="330" width="100" height="30" as="geometry" />
        </mxCell>
        <mxCell id="JYq7Gk4Q5SPEg6qFTbgV-7" value="&lt;div&gt;Vitor&lt;/div&gt;&lt;div&gt;José Pedro&lt;/div&gt;&lt;div&gt;Bento&lt;/div&gt;&lt;div&gt;Clarice&lt;/div&gt;&lt;div&gt;Thales&lt;/div&gt;&lt;div&gt;Thiago&lt;/div&gt;&lt;div&gt;Giovanna&lt;/div&gt;&lt;div&gt;Lucca&lt;/div&gt;&lt;div&gt;Heloíse&lt;/div&gt;&lt;div&gt;Maria Clara&lt;/div&gt;&lt;div&gt;Caio&lt;/div&gt;&lt;div&gt;João Miguel&lt;/div&gt;&lt;div&gt;Miguel&lt;/div&gt;&lt;div&gt;Arthur&lt;/div&gt;&lt;div&gt;Nathan&lt;/div&gt;&lt;div&gt;Vicente&lt;/div&gt;&lt;div&gt;Maria Isis&lt;/div&gt;&lt;div&gt;Isabella&lt;/div&gt;&lt;div&gt;Melinda&lt;/div&gt;&lt;div&gt;Jade&lt;/div&gt;&lt;div&gt;Breno&lt;/div&gt;&lt;div&gt;Lucas&lt;/div&gt;&lt;div&gt;Vinícius&lt;/div&gt;&lt;div&gt;Ana Vitória&lt;/div&gt;&lt;div&gt;Antonella&lt;/div&gt;" style="text;html=1;align=center;verticalAlign=middle;whiteSpace=wrap;rounded=0;fontFamily=Architects Daughter;fontSource=https%3A%2F%2Ffonts.googleapis.com%2Fcss%3Ffamily%3DArchitects%2BDaughter;" vertex="1" parent="JYq7Gk4Q5SPEg6qFTbgV-1">
          <mxGeometry x="790" y="330" width="100" height="30" as="geometry" />
        </mxCell>
        <mxCell id="JYq7Gk4Q5SPEg6qFTbgV-8" value="João Vitor&#xa;Manuela&#xa;Maria Liz&#xa;Liam&#xa;Clara&#xa;Marina&#xa;Maria&#xa;Dom&#xa;Isaac&#xa;Alana&#xa;Oliver&#xa;Enzo Gabriel&#xa;Kauê&#xa;Maria Elisa&#xa;Ana&#xa;Maria Heloísa&#xa;Yasmin&#xa;Martin&#xa;Josué&#xa;Enzo&#xa;Liz&#xa;Théo&#xa;Emilly&#xa;Erick&#xa;Arthur Miguel" style="text;html=1;align=center;verticalAlign=middle;whiteSpace=wrap;rounded=0;fontFamily=Architects Daughter;fontSource=https%3A%2F%2Ffonts.googleapis.com%2Fcss%3Ffamily%3DArchitects%2BDaughter;" vertex="1" parent="JYq7Gk4Q5SPEg6qFTbgV-1">
          <mxGeometry x="870" y="330" width="100" height="30" as="geometry" />
        </mxCell>
        <mxCell id="JYq7Gk4Q5SPEg6qFTbgV-9" value="Yan&#xa;Davi Miguel&#xa;Isabelly&#xa;Francisco&#xa;Joaquim&#xa;Nicolas&#xa;Guilherme&#xa;Isis&#xa;Stella&#xa;Isadora&#xa;Ayla Sophia&#xa;Estevão&#xa;Júlia&#xa;Catarina&#xa;Pietro&#xa;Israel&#xa;Davi Lucca&#xa;Pedro&#xa;Chloe&#xa;Ana Liz&#xa;Levi&#xa;Gustavo&#xa;Lívia&#xa;Maya&#xa;Asafe" style="text;html=1;align=center;verticalAlign=middle;whiteSpace=wrap;rounded=0;fontFamily=Architects Daughter;fontSource=https%3A%2F%2Ffonts.googleapis.com%2Fcss%3Ffamily%3DArchitects%2BDaughter;" vertex="1" parent="JYq7Gk4Q5SPEg6qFTbgV-1">
          <mxGeometry x="950" y="330" width="100" height="30" as="geometry" />
        </mxCell>
        <mxCell id="oKoUBzJmddeGOubCkOfS-0" value="" style="shape=flexArrow;endArrow=classic;html=1;rounded=0;sketch=1;hachureGap=4;jiggle=2;curveFitting=1;fontFamily=Architects Daughter;fontSource=https%3A%2F%2Ffonts.googleapis.com%2Fcss%3Ffamily%3DArchitects%2BDaughter;fillColor=#ff0d00;strokeColor=#ff0800;" edge="1" parent="JYq7Gk4Q5SPEg6qFTbgV-1">
          <mxGeometry width="50" height="50" relative="1" as="geometry">
            <mxPoint x="765" y="380" as="sourcePoint" />
            <mxPoint x="685" y="310" as="targetPoint" />
          </mxGeometry>
        </mxCell>
        <mxCell id="oKoUBzJmddeGOubCkOfS-2" value="" style="shape=flexArrow;endArrow=classic;html=1;rounded=0;sketch=1;hachureGap=4;jiggle=2;curveFitting=1;fontFamily=Architects Daughter;fontSource=https%3A%2F%2Ffonts.googleapis.com%2Fcss%3Ffamily%3DArchitects%2BDaughter;fillColor=#ff0d00;strokeColor=#ff0800;" edge="1" parent="JYq7Gk4Q5SPEg6qFTbgV-1">
          <mxGeometry width="50" height="50" relative="1" as="geometry">
            <mxPoint x="575" y="380" as="sourcePoint" />
            <mxPoint x="655" y="310" as="targetPoint" />
          </mxGeometry>
        </mxCell>
        <mxCell id="oKoUBzJmddeGOubCkOfS-3" value="" style="shape=flexArrow;endArrow=classic;html=1;rounded=0;sketch=1;hachureGap=4;jiggle=2;curveFitting=1;fontFamily=Architects Daughter;fontSource=https%3A%2F%2Ffonts.googleapis.com%2Fcss%3Ffamily%3DArchitects%2BDaughter;fillColor=#ff0d00;strokeColor=#ff0800;" edge="1" parent="JYq7Gk4Q5SPEg6qFTbgV-1">
          <mxGeometry width="50" height="50" relative="1" as="geometry">
            <mxPoint x="585" y="220" as="sourcePoint" />
            <mxPoint x="665" y="290" as="targetPoint" />
          </mxGeometry>
        </mxCell>
        <mxCell id="oKoUBzJmddeGOubCkOfS-5" value="" style="shape=flexArrow;endArrow=classic;html=1;rounded=0;sketch=1;hachureGap=4;jiggle=2;curveFitting=1;fontFamily=Architects Daughter;fontSource=https%3A%2F%2Ffonts.googleapis.com%2Fcss%3Ffamily%3DArchitects%2BDaughter;fillColor=#ff0d00;strokeColor=#ff0800;" edge="1" parent="JYq7Gk4Q5SPEg6qFTbgV-1">
          <mxGeometry width="50" height="50" relative="1" as="geometry">
            <mxPoint x="765" y="220" as="sourcePoint" />
            <mxPoint x="685" y="290" as="targetPoint" />
          </mxGeometry>
        </mxCell>
      </root>
    </mxGraphModel>
  </diagram>
  <diagram id="_j1fPA8jtfPLZpOCzLZy" name="NomesClassificados">
    <mxGraphModel dx="1595" dy="1103" grid="1" gridSize="10" guides="1" tooltips="1" connect="1" arrows="1" fold="1" page="0" pageScale="1" pageWidth="827" pageHeight="1169" math="0" shadow="0">
      <root>
        <mxCell id="0" />
        <mxCell id="1" parent="0" />
        <mxCell id="xTabPSq1vFrwHK1lTaBo-1" value="" style="swimlane;startSize=0;sketch=1;hachureGap=4;jiggle=2;curveFitting=1;fontFamily=Architects Daughter;fontSource=https%3A%2F%2Ffonts.googleapis.com%2Fcss%3Ffamily%3DArchitects%2BDaughter;fillColor=#1ba1e2;strokeColor=#006EAF;fontColor=#ffffff;" vertex="1" parent="1">
          <mxGeometry x="-40" y="-40" width="80" height="170" as="geometry" />
        </mxCell>
        <mxCell id="xTabPSq1vFrwHK1lTaBo-2" value="Anthony&#xa;Anthony Gabriel&#xa;Antônio&#xa;Apollo&#xa;Arthur&#xa;Arthur Miguel&#xa;Asafe&#xa;Augusto" style="text;html=1;align=center;verticalAlign=middle;whiteSpace=wrap;rounded=0;fontFamily=Architects Daughter;fontSource=https%3A%2F%2Ffonts.googleapis.com%2Fcss%3Ffamily%3DArchitects%2BDaughter;" vertex="1" parent="xTabPSq1vFrwHK1lTaBo-1">
          <mxGeometry x="10" y="70" width="60" height="30" as="geometry" />
        </mxCell>
        <mxCell id="xTabPSq1vFrwHK1lTaBo-3" value="" style="swimlane;startSize=0;sketch=1;hachureGap=4;jiggle=2;curveFitting=1;fontFamily=Architects Daughter;fontSource=https%3A%2F%2Ffonts.googleapis.com%2Fcss%3Ffamily%3DArchitects%2BDaughter;fillColor=#1ba1e2;strokeColor=#006EAF;fontColor=#ffffff;" vertex="1" parent="1">
          <mxGeometry x="40" y="-40" width="80" height="170" as="geometry" />
        </mxCell>
        <mxCell id="xTabPSq1vFrwHK1lTaBo-4" value="&lt;div&gt;Benício&lt;/div&gt;&lt;div&gt;Benjamin&lt;/div&gt;&lt;div&gt;Bento&lt;/div&gt;&lt;div&gt;Bernardo&lt;/div&gt;&lt;div&gt;Breno&lt;/div&gt;&lt;div&gt;Bryan&lt;/div&gt;&lt;div&gt;Caio&lt;/div&gt;&lt;div&gt;Caleb&lt;/div&gt;&lt;div&gt;Cauã&lt;/div&gt;" style="text;html=1;align=center;verticalAlign=middle;whiteSpace=wrap;rounded=0;fontFamily=Architects Daughter;fontSource=https%3A%2F%2Ffonts.googleapis.com%2Fcss%3Ffamily%3DArchitects%2BDaughter;" vertex="1" parent="xTabPSq1vFrwHK1lTaBo-3">
          <mxGeometry x="10" y="70" width="60" height="30" as="geometry" />
        </mxCell>
        <mxCell id="xTabPSq1vFrwHK1lTaBo-5" value="" style="swimlane;startSize=0;sketch=1;hachureGap=4;jiggle=2;curveFitting=1;fontFamily=Architects Daughter;fontSource=https%3A%2F%2Ffonts.googleapis.com%2Fcss%3Ffamily%3DArchitects%2BDaughter;fillColor=#1ba1e2;strokeColor=#006EAF;fontColor=#ffffff;" vertex="1" parent="1">
          <mxGeometry x="120" y="-40" width="80" height="170" as="geometry" />
        </mxCell>
        <mxCell id="xTabPSq1vFrwHK1lTaBo-6" value="&lt;div&gt;Daniel&lt;/div&gt;&lt;div&gt;Davi&lt;/div&gt;&lt;div&gt;Davi Lucas&lt;/div&gt;&lt;div&gt;Davi Lucca&lt;/div&gt;&lt;div&gt;Davi Luiz&lt;/div&gt;&lt;div&gt;Davi Miguel&lt;/div&gt;&lt;div&gt;Dom&lt;/div&gt;&lt;div&gt;Dominic&lt;/div&gt;" style="text;html=1;align=center;verticalAlign=middle;whiteSpace=wrap;rounded=0;fontFamily=Architects Daughter;fontSource=https%3A%2F%2Ffonts.googleapis.com%2Fcss%3Ffamily%3DArchitects%2BDaughter;" vertex="1" parent="xTabPSq1vFrwHK1lTaBo-5">
          <mxGeometry x="10" y="70" width="70" height="30" as="geometry" />
        </mxCell>
        <mxCell id="xTabPSq1vFrwHK1lTaBo-7" value="" style="swimlane;startSize=0;sketch=1;hachureGap=4;jiggle=2;curveFitting=1;fontFamily=Architects Daughter;fontSource=https%3A%2F%2Ffonts.googleapis.com%2Fcss%3Ffamily%3DArchitects%2BDaughter;fillColor=#1ba1e2;strokeColor=#006EAF;fontColor=#ffffff;" vertex="1" parent="1">
          <mxGeometry x="200" y="-40" width="80" height="170" as="geometry" />
        </mxCell>
        <mxCell id="xTabPSq1vFrwHK1lTaBo-8" value="&lt;div&gt;Eduardo&lt;/div&gt;&lt;div&gt;Emanuel&lt;/div&gt;&lt;div&gt;Enrico&lt;/div&gt;&lt;div&gt;Enzo&lt;/div&gt;&lt;div&gt;Enzo Gabriel&lt;/div&gt;&lt;div&gt;Erick&lt;/div&gt;&lt;div&gt;Estevão&lt;/div&gt;&lt;div&gt;Felipe&lt;/div&gt;&lt;div&gt;Francisco&lt;/div&gt;" style="text;html=1;align=center;verticalAlign=middle;whiteSpace=wrap;rounded=0;fontFamily=Architects Daughter;fontSource=https%3A%2F%2Ffonts.googleapis.com%2Fcss%3Ffamily%3DArchitects%2BDaughter;" vertex="1" parent="xTabPSq1vFrwHK1lTaBo-7">
          <mxGeometry x="10" y="70" width="60" height="30" as="geometry" />
        </mxCell>
        <mxCell id="xTabPSq1vFrwHK1lTaBo-12" value="" style="swimlane;startSize=0;sketch=1;hachureGap=4;jiggle=2;curveFitting=1;fontFamily=Architects Daughter;fontSource=https%3A%2F%2Ffonts.googleapis.com%2Fcss%3Ffamily%3DArchitects%2BDaughter;fillColor=#1ba1e2;strokeColor=#006EAF;fontColor=#ffffff;" vertex="1" parent="1">
          <mxGeometry x="280" y="-40" width="80" height="170" as="geometry" />
        </mxCell>
        <mxCell id="xTabPSq1vFrwHK1lTaBo-13" value="&lt;div&gt;Gabriel&lt;/div&gt;&lt;div&gt;Gael&lt;/div&gt;&lt;div&gt;Guilherme&lt;/div&gt;&lt;div&gt;Gustavo&lt;/div&gt;&lt;div&gt;Heitor&lt;/div&gt;&lt;div&gt;Henrique&lt;/div&gt;&lt;div&gt;Henry&lt;/div&gt;&lt;div&gt;Isaac&lt;/div&gt;&lt;div&gt;Israel&lt;/div&gt;" style="text;html=1;align=center;verticalAlign=middle;whiteSpace=wrap;rounded=0;fontFamily=Architects Daughter;fontSource=https%3A%2F%2Ffonts.googleapis.com%2Fcss%3Ffamily%3DArchitects%2BDaughter;" vertex="1" parent="xTabPSq1vFrwHK1lTaBo-12">
          <mxGeometry x="10" y="70" width="60" height="30" as="geometry" />
        </mxCell>
        <mxCell id="xTabPSq1vFrwHK1lTaBo-14" value="" style="swimlane;startSize=0;sketch=1;hachureGap=4;jiggle=2;curveFitting=1;fontFamily=Architects Daughter;fontSource=https%3A%2F%2Ffonts.googleapis.com%2Fcss%3Ffamily%3DArchitects%2BDaughter;fillColor=#1ba1e2;strokeColor=#006EAF;fontColor=#ffffff;" vertex="1" parent="1">
          <mxGeometry x="360" y="-40" width="100" height="170" as="geometry" />
        </mxCell>
        <mxCell id="xTabPSq1vFrwHK1lTaBo-15" value="&lt;div&gt;João&lt;/div&gt;&lt;div&gt;João Gabriel&lt;/div&gt;&lt;div&gt;João Guilherme&lt;/div&gt;&lt;div&gt;João Lucas&lt;/div&gt;&lt;div&gt;João Miguel&lt;/div&gt;&lt;div&gt;João Pedro&lt;/div&gt;&lt;div&gt;João Vitor&lt;/div&gt;&lt;div&gt;Joaquim&lt;/div&gt;&lt;div&gt;&lt;span style=&quot;background-color: initial;&quot;&gt;José Miguel&lt;/span&gt;&lt;br&gt;&lt;/div&gt;&lt;div&gt;José Pedro&lt;/div&gt;&lt;div&gt;Josué&lt;/div&gt;" style="text;html=1;align=center;verticalAlign=middle;whiteSpace=wrap;rounded=0;fontFamily=Architects Daughter;fontSource=https%3A%2F%2Ffonts.googleapis.com%2Fcss%3Ffamily%3DArchitects%2BDaughter;" vertex="1" parent="xTabPSq1vFrwHK1lTaBo-14">
          <mxGeometry x="5" y="70" width="90" height="30" as="geometry" />
        </mxCell>
        <mxCell id="xTabPSq1vFrwHK1lTaBo-18" value="" style="swimlane;startSize=0;sketch=1;hachureGap=4;jiggle=2;curveFitting=1;fontFamily=Architects Daughter;fontSource=https%3A%2F%2Ffonts.googleapis.com%2Fcss%3Ffamily%3DArchitects%2BDaughter;fillColor=#1ba1e2;strokeColor=#006EAF;fontColor=#ffffff;" vertex="1" parent="1">
          <mxGeometry x="40" y="130" width="80" height="170" as="geometry" />
        </mxCell>
        <mxCell id="xTabPSq1vFrwHK1lTaBo-19" value="&lt;div&gt;Martin&lt;/div&gt;&lt;div&gt;Matheus&lt;/div&gt;&lt;div&gt;Mathias&lt;/div&gt;&lt;div&gt;Matteo&lt;/div&gt;&lt;div&gt;Miguel&lt;/div&gt;&lt;div&gt;Murilo&lt;/div&gt;&lt;div&gt;Nathan&lt;/div&gt;&lt;div&gt;Nicolas&lt;/div&gt;&lt;div&gt;Noah&lt;/div&gt;" style="text;html=1;align=center;verticalAlign=middle;whiteSpace=wrap;rounded=0;fontFamily=Architects Daughter;fontSource=https%3A%2F%2Ffonts.googleapis.com%2Fcss%3Ffamily%3DArchitects%2BDaughter;" vertex="1" parent="xTabPSq1vFrwHK1lTaBo-18">
          <mxGeometry x="10" y="70" width="60" height="30" as="geometry" />
        </mxCell>
        <mxCell id="xTabPSq1vFrwHK1lTaBo-16" value="" style="swimlane;startSize=0;sketch=1;hachureGap=4;jiggle=2;curveFitting=1;fontFamily=Architects Daughter;fontSource=https%3A%2F%2Ffonts.googleapis.com%2Fcss%3Ffamily%3DArchitects%2BDaughter;fillColor=#1ba1e2;strokeColor=#006EAF;fontColor=#ffffff;" vertex="1" parent="xTabPSq1vFrwHK1lTaBo-18">
          <mxGeometry x="-80" width="80" height="170" as="geometry" />
        </mxCell>
        <mxCell id="xTabPSq1vFrwHK1lTaBo-17" value="&lt;div&gt;Leonardo&lt;/div&gt;&lt;div&gt;Léonovo&lt;/div&gt;&lt;div&gt;Levi&lt;/div&gt;&lt;div&gt;Liam&lt;/div&gt;&lt;div&gt;Lorenzo&lt;/div&gt;&lt;div&gt;Luan&lt;/div&gt;&lt;div&gt;Lucas&lt;/div&gt;&lt;div&gt;Lucca&lt;/div&gt;&lt;div&gt;Luiz Henrique&lt;/div&gt;&lt;div&gt;Luiz Miguel&lt;/div&gt;" style="text;html=1;align=center;verticalAlign=middle;whiteSpace=wrap;rounded=0;fontFamily=Architects Daughter;fontSource=https%3A%2F%2Ffonts.googleapis.com%2Fcss%3Ffamily%3DArchitects%2BDaughter;" vertex="1" parent="xTabPSq1vFrwHK1lTaBo-16">
          <mxGeometry y="70" width="80" height="30" as="geometry" />
        </mxCell>
        <mxCell id="xTabPSq1vFrwHK1lTaBo-20" value="" style="swimlane;startSize=0;sketch=1;hachureGap=4;jiggle=2;curveFitting=1;fontFamily=Architects Daughter;fontSource=https%3A%2F%2Ffonts.googleapis.com%2Fcss%3Ffamily%3DArchitects%2BDaughter;fillColor=#1ba1e2;strokeColor=#006EAF;fontColor=#ffffff;" vertex="1" parent="1">
          <mxGeometry x="120" y="130" width="80" height="170" as="geometry" />
        </mxCell>
        <mxCell id="xTabPSq1vFrwHK1lTaBo-21" value="&lt;div&gt;Oliver&lt;/div&gt;&lt;div&gt;Otávio&lt;/div&gt;&lt;div&gt;Pedro&lt;/div&gt;&lt;div&gt;Pedro H&lt;/div&gt;&lt;div&gt;Pietro&lt;/div&gt;&lt;div&gt;Rael&lt;/div&gt;&lt;div&gt;Rafael&lt;/div&gt;&lt;div&gt;Raul&lt;/div&gt;&lt;div&gt;Ravi&lt;/div&gt;&lt;div&gt;Ravi Lucca&lt;/div&gt;&lt;div&gt;Ryan&lt;/div&gt;" style="text;html=1;align=center;verticalAlign=middle;whiteSpace=wrap;rounded=0;fontFamily=Architects Daughter;fontSource=https%3A%2F%2Ffonts.googleapis.com%2Fcss%3Ffamily%3DArchitects%2BDaughter;" vertex="1" parent="xTabPSq1vFrwHK1lTaBo-20">
          <mxGeometry x="5" y="70" width="70" height="30" as="geometry" />
        </mxCell>
        <mxCell id="xTabPSq1vFrwHK1lTaBo-25" value="" style="swimlane;startSize=0;sketch=1;hachureGap=4;jiggle=2;curveFitting=1;fontFamily=Architects Daughter;fontSource=https%3A%2F%2Ffonts.googleapis.com%2Fcss%3Ffamily%3DArchitects%2BDaughter;fillColor=#1ba1e2;strokeColor=#006EAF;fontColor=#ffffff;" vertex="1" parent="1">
          <mxGeometry x="280" y="130" width="80" height="170" as="geometry" />
        </mxCell>
        <mxCell id="xTabPSq1vFrwHK1lTaBo-26" value="&lt;div&gt;Valentim&lt;/div&gt;&lt;div&gt;Vicente&lt;/div&gt;&lt;div&gt;Vinícius&lt;/div&gt;&lt;div&gt;Vitor&lt;/div&gt;&lt;div&gt;Yan&lt;/div&gt;&lt;div&gt;Yuri&lt;/div&gt;" style="text;html=1;align=center;verticalAlign=middle;whiteSpace=wrap;rounded=0;fontFamily=Architects Daughter;fontSource=https%3A%2F%2Ffonts.googleapis.com%2Fcss%3Ffamily%3DArchitects%2BDaughter;" vertex="1" parent="xTabPSq1vFrwHK1lTaBo-25">
          <mxGeometry x="5" y="70" width="70" height="30" as="geometry" />
        </mxCell>
        <mxCell id="xTabPSq1vFrwHK1lTaBo-28" value="" style="swimlane;startSize=0;sketch=1;hachureGap=4;jiggle=2;curveFitting=1;fontFamily=Architects Daughter;fontSource=https%3A%2F%2Ffonts.googleapis.com%2Fcss%3Ffamily%3DArchitects%2BDaughter;fillColor=#1ba1e2;strokeColor=#006EAF;fontColor=#ffffff;" vertex="1" parent="1">
          <mxGeometry x="200" y="130" width="80" height="170" as="geometry" />
        </mxCell>
        <mxCell id="xTabPSq1vFrwHK1lTaBo-29" value="&lt;div&gt;Samuel&lt;/div&gt;&lt;div&gt;Thales&lt;/div&gt;&lt;div&gt;Théo&lt;/div&gt;&lt;div&gt;Theodoro&lt;/div&gt;&lt;div&gt;Thiago&lt;/div&gt;&lt;div&gt;Thomas&lt;/div&gt;&lt;div&gt;Tomás&lt;/div&gt;" style="text;html=1;align=center;verticalAlign=middle;whiteSpace=wrap;rounded=0;fontFamily=Architects Daughter;fontSource=https%3A%2F%2Ffonts.googleapis.com%2Fcss%3Ffamily%3DArchitects%2BDaughter;" vertex="1" parent="xTabPSq1vFrwHK1lTaBo-28">
          <mxGeometry x="5" y="70" width="70" height="30" as="geometry" />
        </mxCell>
        <mxCell id="zEd1coQn7dAzcm9MUj_K-7" value="" style="swimlane;startSize=0;sketch=1;hachureGap=4;jiggle=2;curveFitting=1;fontFamily=Architects Daughter;fontSource=https%3A%2F%2Ffonts.googleapis.com%2Fcss%3Ffamily%3DArchitects%2BDaughter;fillColor=#d80073;fontColor=#ffffff;strokeColor=#A50040;" vertex="1" parent="1">
          <mxGeometry x="470" y="-40" width="80" height="170" as="geometry" />
        </mxCell>
        <mxCell id="zEd1coQn7dAzcm9MUj_K-8" value="&lt;div&gt;Ana&lt;/div&gt;&lt;div&gt;Ana Beatriz&lt;/div&gt;&lt;div&gt;Ana Cecília&lt;/div&gt;&lt;div&gt;Ana Clara&lt;/div&gt;&lt;div&gt;Ana Júlia&lt;/div&gt;&lt;div&gt;Ana Laura&lt;/div&gt;&lt;div&gt;Ana Lívia&lt;/div&gt;&lt;div&gt;Ana Liz&lt;/div&gt;&lt;div&gt;Ana Luísa&lt;/div&gt;&lt;div&gt;Ana Vitória&lt;/div&gt;" style="text;html=1;align=center;verticalAlign=middle;whiteSpace=wrap;rounded=0;fontFamily=Architects Daughter;fontSource=https%3A%2F%2Ffonts.googleapis.com%2Fcss%3Ffamily%3DArchitects%2BDaughter;" vertex="1" parent="zEd1coQn7dAzcm9MUj_K-7">
          <mxGeometry x="5" y="70" width="70" height="30" as="geometry" />
        </mxCell>
        <mxCell id="zEd1coQn7dAzcm9MUj_K-13" value="" style="swimlane;startSize=0;sketch=1;hachureGap=4;jiggle=2;curveFitting=1;fontFamily=Architects Daughter;fontSource=https%3A%2F%2Ffonts.googleapis.com%2Fcss%3Ffamily%3DArchitects%2BDaughter;fillColor=#d80073;fontColor=#ffffff;strokeColor=#A50040;" vertex="1" parent="1">
          <mxGeometry x="550" y="-40" width="80" height="170" as="geometry" />
        </mxCell>
        <mxCell id="zEd1coQn7dAzcm9MUj_K-14" value="&lt;div&gt;Agatha&lt;/div&gt;&lt;div&gt;Alana&lt;/div&gt;&lt;div&gt;Alice&lt;/div&gt;&lt;div&gt;Alícia&lt;/div&gt;&lt;div&gt;Antonella&lt;/div&gt;&lt;div&gt;Aurora&lt;/div&gt;&lt;div&gt;Ayla&lt;/div&gt;&lt;div&gt;Ayla Sophia&lt;/div&gt;" style="text;html=1;align=center;verticalAlign=middle;whiteSpace=wrap;rounded=0;fontFamily=Architects Daughter;fontSource=https%3A%2F%2Ffonts.googleapis.com%2Fcss%3Ffamily%3DArchitects%2BDaughter;" vertex="1" parent="zEd1coQn7dAzcm9MUj_K-13">
          <mxGeometry x="5" y="70" width="70" height="30" as="geometry" />
        </mxCell>
        <mxCell id="zEd1coQn7dAzcm9MUj_K-32" value="" style="swimlane;startSize=0;sketch=1;hachureGap=4;jiggle=2;curveFitting=1;fontFamily=Architects Daughter;fontSource=https%3A%2F%2Ffonts.googleapis.com%2Fcss%3Ffamily%3DArchitects%2BDaughter;fillColor=#d80073;fontColor=#ffffff;strokeColor=#A50040;" vertex="1" parent="zEd1coQn7dAzcm9MUj_K-13">
          <mxGeometry x="180" y="170" width="80" height="170" as="geometry" />
        </mxCell>
        <mxCell id="zEd1coQn7dAzcm9MUj_K-33" value="&lt;div&gt;Nicole&lt;/div&gt;&lt;div&gt;Olívia&lt;/div&gt;&lt;div&gt;Pérola&lt;/div&gt;&lt;div&gt;Rafaela&lt;/div&gt;&lt;div&gt;Rebeca&lt;/div&gt;" style="text;html=1;align=center;verticalAlign=middle;whiteSpace=wrap;rounded=0;fontFamily=Architects Daughter;fontSource=https%3A%2F%2Ffonts.googleapis.com%2Fcss%3Ffamily%3DArchitects%2BDaughter;" vertex="1" parent="zEd1coQn7dAzcm9MUj_K-32">
          <mxGeometry x="5" y="70" width="70" height="30" as="geometry" />
        </mxCell>
        <mxCell id="zEd1coQn7dAzcm9MUj_K-17" value="" style="swimlane;startSize=0;sketch=1;hachureGap=4;jiggle=2;curveFitting=1;fontFamily=Architects Daughter;fontSource=https%3A%2F%2Ffonts.googleapis.com%2Fcss%3Ffamily%3DArchitects%2BDaughter;fillColor=#d80073;fontColor=#ffffff;strokeColor=#A50040;" vertex="1" parent="1">
          <mxGeometry x="630" y="-40" width="160" height="170" as="geometry" />
        </mxCell>
        <mxCell id="zEd1coQn7dAzcm9MUj_K-18" value="&lt;div&gt;Beatriz&lt;/div&gt;&lt;div&gt;Bella&lt;/div&gt;&lt;div&gt;Betina&lt;/div&gt;&lt;div&gt;Bianca&lt;/div&gt;&lt;div&gt;Catarina&lt;/div&gt;&lt;div&gt;Cecília&lt;/div&gt;&lt;div&gt;Chloe&lt;/div&gt;&lt;div&gt;Clara&lt;/div&gt;&lt;div&gt;Clarice&lt;/div&gt;" style="text;html=1;align=center;verticalAlign=middle;whiteSpace=wrap;rounded=0;fontFamily=Architects Daughter;fontSource=https%3A%2F%2Ffonts.googleapis.com%2Fcss%3Ffamily%3DArchitects%2BDaughter;" vertex="1" parent="zEd1coQn7dAzcm9MUj_K-17">
          <mxGeometry x="5" y="70" width="70" height="30" as="geometry" />
        </mxCell>
        <mxCell id="zEd1coQn7dAzcm9MUj_K-11" value="" style="swimlane;startSize=0;sketch=1;hachureGap=4;jiggle=2;curveFitting=1;fontFamily=Architects Daughter;fontSource=https%3A%2F%2Ffonts.googleapis.com%2Fcss%3Ffamily%3DArchitects%2BDaughter;fillColor=#d80073;fontColor=#ffffff;strokeColor=#A50040;" vertex="1" parent="zEd1coQn7dAzcm9MUj_K-17">
          <mxGeometry x="80" width="80" height="170" as="geometry" />
        </mxCell>
        <mxCell id="zEd1coQn7dAzcm9MUj_K-12" value="&lt;div&gt;Diana&lt;/div&gt;&lt;div&gt;Eduarda&lt;/div&gt;&lt;div&gt;Elis&lt;/div&gt;&lt;div&gt;Elisa&lt;/div&gt;&lt;div&gt;Eloá&lt;/div&gt;&lt;div&gt;Emanuelly&lt;/div&gt;&lt;div&gt;Emilly&lt;/div&gt;&lt;div&gt;Esther&lt;/div&gt;&lt;div&gt;Gabriela&lt;/div&gt;&lt;div&gt;Giovanna&lt;/div&gt;" style="text;html=1;align=center;verticalAlign=middle;whiteSpace=wrap;rounded=0;fontFamily=Architects Daughter;fontSource=https%3A%2F%2Ffonts.googleapis.com%2Fcss%3Ffamily%3DArchitects%2BDaughter;" vertex="1" parent="zEd1coQn7dAzcm9MUj_K-11">
          <mxGeometry x="5" y="70" width="70" height="30" as="geometry" />
        </mxCell>
        <mxCell id="zEd1coQn7dAzcm9MUj_K-19" value="" style="swimlane;startSize=0;sketch=1;hachureGap=4;jiggle=2;curveFitting=1;fontFamily=Architects Daughter;fontSource=https%3A%2F%2Ffonts.googleapis.com%2Fcss%3Ffamily%3DArchitects%2BDaughter;fillColor=#d80073;strokeColor=#A50040;fontColor=#ffffff;" vertex="1" parent="1">
          <mxGeometry x="810" y="130" width="80" height="170" as="geometry" />
        </mxCell>
        <mxCell id="zEd1coQn7dAzcm9MUj_K-20" value="&lt;div&gt;Sarah&lt;/div&gt;&lt;div&gt;Sophia&lt;/div&gt;&lt;div&gt;Stella&lt;/div&gt;&lt;div&gt;Valentina&lt;/div&gt;&lt;div&gt;Vitória&lt;/div&gt;&lt;div&gt;Yasmin&lt;/div&gt;&lt;div&gt;Zoe&lt;/div&gt;" style="text;html=1;align=center;verticalAlign=middle;whiteSpace=wrap;rounded=0;fontFamily=Architects Daughter;fontSource=https%3A%2F%2Ffonts.googleapis.com%2Fcss%3Ffamily%3DArchitects%2BDaughter;" vertex="1" parent="zEd1coQn7dAzcm9MUj_K-19">
          <mxGeometry x="5" y="70" width="70" height="30" as="geometry" />
        </mxCell>
        <mxCell id="zEd1coQn7dAzcm9MUj_K-23" value="" style="swimlane;startSize=0;sketch=1;hachureGap=4;jiggle=2;curveFitting=1;fontFamily=Architects Daughter;fontSource=https%3A%2F%2Ffonts.googleapis.com%2Fcss%3Ffamily%3DArchitects%2BDaughter;fillColor=#d80073;strokeColor=#A50040;fontColor=#ffffff;" vertex="1" parent="1">
          <mxGeometry x="790" y="-40" width="80" height="170" as="geometry" />
        </mxCell>
        <mxCell id="zEd1coQn7dAzcm9MUj_K-24" value="&lt;div&gt;Hadassa&lt;/div&gt;&lt;div&gt;Helena&lt;/div&gt;&lt;div&gt;Heloísa&lt;/div&gt;&lt;div&gt;Heloíse&lt;/div&gt;&lt;div&gt;Isabel&lt;/div&gt;&lt;div&gt;Isabella&lt;/div&gt;&lt;div&gt;Isabelly&lt;/div&gt;&lt;div&gt;Isadora&lt;/div&gt;&lt;div&gt;Isis&lt;/div&gt;&lt;div&gt;&lt;div&gt;Jade&lt;/div&gt;&lt;div&gt;Joana&lt;/div&gt;&lt;div&gt;Júlia&lt;/div&gt;&lt;/div&gt;" style="text;html=1;align=center;verticalAlign=middle;whiteSpace=wrap;rounded=0;fontFamily=Architects Daughter;fontSource=https%3A%2F%2Ffonts.googleapis.com%2Fcss%3Ffamily%3DArchitects%2BDaughter;" vertex="1" parent="zEd1coQn7dAzcm9MUj_K-23">
          <mxGeometry x="5" y="70" width="70" height="30" as="geometry" />
        </mxCell>
        <mxCell id="zEd1coQn7dAzcm9MUj_K-25" value="" style="swimlane;startSize=0;sketch=1;hachureGap=4;jiggle=2;curveFitting=1;fontFamily=Architects Daughter;fontSource=https%3A%2F%2Ffonts.googleapis.com%2Fcss%3Ffamily%3DArchitects%2BDaughter;fillColor=#d80073;fontColor=#ffffff;strokeColor=#A50040;" vertex="1" parent="1">
          <mxGeometry x="470" y="130" width="80" height="170" as="geometry" />
        </mxCell>
        <mxCell id="zEd1coQn7dAzcm9MUj_K-26" value="&lt;div&gt;Laís&lt;/div&gt;&lt;div&gt;Lara&lt;/div&gt;&lt;div&gt;Laura&lt;/div&gt;&lt;div&gt;Lavínia&lt;/div&gt;&lt;div&gt;Letícia&lt;/div&gt;&lt;div&gt;Lívia&lt;/div&gt;&lt;div&gt;Liz&lt;/div&gt;&lt;div&gt;Lorena&lt;/div&gt;&lt;div&gt;Louise&lt;/div&gt;&lt;div&gt;Luísa&lt;/div&gt;&lt;div&gt;Luna&lt;/div&gt;" style="text;html=1;align=center;verticalAlign=middle;whiteSpace=wrap;rounded=0;fontFamily=Architects Daughter;fontSource=https%3A%2F%2Ffonts.googleapis.com%2Fcss%3Ffamily%3DArchitects%2BDaughter;" vertex="1" parent="zEd1coQn7dAzcm9MUj_K-25">
          <mxGeometry x="5" y="70" width="70" height="30" as="geometry" />
        </mxCell>
        <mxCell id="zEd1coQn7dAzcm9MUj_K-28" value="" style="swimlane;startSize=0;sketch=1;hachureGap=4;jiggle=2;curveFitting=1;fontFamily=Architects Daughter;fontSource=https%3A%2F%2Ffonts.googleapis.com%2Fcss%3Ffamily%3DArchitects%2BDaughter;fillColor=#d80073;fontColor=#ffffff;strokeColor=#A50040;" vertex="1" parent="1">
          <mxGeometry x="550" y="130" width="100" height="240" as="geometry" />
        </mxCell>
        <mxCell id="zEd1coQn7dAzcm9MUj_K-29" value="&lt;div&gt;Maria&lt;/div&gt;&lt;div&gt;Maria Alice&lt;/div&gt;&lt;div&gt;Maria Cecília&lt;/div&gt;&lt;div&gt;Maria Clara&lt;/div&gt;&lt;div&gt;Maria Eduarda&lt;/div&gt;&lt;div&gt;Maria Elisa&lt;/div&gt;&lt;div&gt;Maria Fernanda&lt;/div&gt;&lt;div&gt;Maria Helena&lt;/div&gt;&lt;div&gt;Maria Heloísa&lt;/div&gt;&lt;div&gt;Maria Isis&lt;/div&gt;&lt;div&gt;Maria Júlia&lt;/div&gt;&lt;div&gt;Maria Laura&lt;/div&gt;&lt;div&gt;Maria Liz&lt;/div&gt;&lt;div&gt;Maria Luísa&lt;/div&gt;&lt;div&gt;Maria Valentina&lt;/div&gt;&lt;div&gt;Maria Vitória&lt;/div&gt;" style="text;html=1;align=center;verticalAlign=middle;whiteSpace=wrap;rounded=0;fontFamily=Architects Daughter;fontSource=https%3A%2F%2Ffonts.googleapis.com%2Fcss%3Ffamily%3DArchitects%2BDaughter;" vertex="1" parent="zEd1coQn7dAzcm9MUj_K-28">
          <mxGeometry x="5" y="105" width="95" height="30" as="geometry" />
        </mxCell>
        <mxCell id="zEd1coQn7dAzcm9MUj_K-30" value="" style="swimlane;startSize=0;sketch=1;hachureGap=4;jiggle=2;curveFitting=1;fontFamily=Architects Daughter;fontSource=https%3A%2F%2Ffonts.googleapis.com%2Fcss%3Ffamily%3DArchitects%2BDaughter;fillColor=#d80073;fontColor=#ffffff;strokeColor=#A50040;" vertex="1" parent="1">
          <mxGeometry x="650" y="130" width="80" height="180" as="geometry" />
        </mxCell>
        <mxCell id="zEd1coQn7dAzcm9MUj_K-31" value="&lt;div&gt;Maitê&lt;/div&gt;&lt;div&gt;Malu&lt;/div&gt;&lt;div&gt;Manuela&lt;/div&gt;&lt;div&gt;Mariah&lt;/div&gt;&lt;div&gt;Mariana&lt;/div&gt;&lt;div&gt;Marina&lt;/div&gt;&lt;div&gt;Maya&lt;/div&gt;&lt;div&gt;Melina&lt;/div&gt;&lt;div&gt;Melinda&lt;/div&gt;&lt;div&gt;Melissa&lt;/div&gt;&lt;div&gt;Milena&lt;/div&gt;&lt;div&gt;Mirella&lt;/div&gt;" style="text;html=1;align=center;verticalAlign=middle;whiteSpace=wrap;rounded=0;fontFamily=Architects Daughter;fontSource=https%3A%2F%2Ffonts.googleapis.com%2Fcss%3Ffamily%3DArchitects%2BDaughter;" vertex="1" parent="zEd1coQn7dAzcm9MUj_K-30">
          <mxGeometry x="5" y="77" width="70" height="30" as="geometry" />
        </mxCell>
        <mxCell id="-veaZLfYOOAjsmNdZ5Y8-1" value="A" style="text;html=1;align=center;verticalAlign=middle;whiteSpace=wrap;rounded=0;fontFamily=Architects Daughter;fontSource=https%3A%2F%2Ffonts.googleapis.com%2Fcss%3Ffamily%3DArchitects%2BDaughter;fontSize=18;" vertex="1" parent="1">
          <mxGeometry x="-40" y="-70" width="80" height="30" as="geometry" />
        </mxCell>
        <mxCell id="-veaZLfYOOAjsmNdZ5Y8-2" value="B-C" style="text;html=1;align=center;verticalAlign=middle;whiteSpace=wrap;rounded=0;fontFamily=Architects Daughter;fontSource=https%3A%2F%2Ffonts.googleapis.com%2Fcss%3Ffamily%3DArchitects%2BDaughter;fontSize=18;" vertex="1" parent="1">
          <mxGeometry x="40" y="-70" width="80" height="30" as="geometry" />
        </mxCell>
        <mxCell id="-veaZLfYOOAjsmNdZ5Y8-3" value="D" style="text;html=1;align=center;verticalAlign=middle;whiteSpace=wrap;rounded=0;fontFamily=Architects Daughter;fontSource=https%3A%2F%2Ffonts.googleapis.com%2Fcss%3Ffamily%3DArchitects%2BDaughter;fontSize=18;" vertex="1" parent="1">
          <mxGeometry x="120" y="-70" width="80" height="30" as="geometry" />
        </mxCell>
        <mxCell id="-veaZLfYOOAjsmNdZ5Y8-4" value="E-F" style="text;html=1;align=center;verticalAlign=middle;whiteSpace=wrap;rounded=0;fontFamily=Architects Daughter;fontSource=https%3A%2F%2Ffonts.googleapis.com%2Fcss%3Ffamily%3DArchitects%2BDaughter;fontSize=18;" vertex="1" parent="1">
          <mxGeometry x="200" y="-70" width="80" height="30" as="geometry" />
        </mxCell>
        <mxCell id="-veaZLfYOOAjsmNdZ5Y8-5" value="G-H-I" style="text;html=1;align=center;verticalAlign=middle;whiteSpace=wrap;rounded=0;fontFamily=Architects Daughter;fontSource=https%3A%2F%2Ffonts.googleapis.com%2Fcss%3Ffamily%3DArchitects%2BDaughter;fontSize=18;" vertex="1" parent="1">
          <mxGeometry x="280" y="-70" width="80" height="30" as="geometry" />
        </mxCell>
        <mxCell id="-veaZLfYOOAjsmNdZ5Y8-6" value="J" style="text;html=1;align=center;verticalAlign=middle;whiteSpace=wrap;rounded=0;fontFamily=Architects Daughter;fontSource=https%3A%2F%2Ffonts.googleapis.com%2Fcss%3Ffamily%3DArchitects%2BDaughter;fontSize=18;" vertex="1" parent="1">
          <mxGeometry x="370" y="-70" width="80" height="30" as="geometry" />
        </mxCell>
        <mxCell id="-veaZLfYOOAjsmNdZ5Y8-7" value="L" style="text;html=1;align=center;verticalAlign=middle;whiteSpace=wrap;rounded=0;fontFamily=Architects Daughter;fontSource=https%3A%2F%2Ffonts.googleapis.com%2Fcss%3Ffamily%3DArchitects%2BDaughter;fontSize=18;" vertex="1" parent="1">
          <mxGeometry x="-40" y="300" width="80" height="30" as="geometry" />
        </mxCell>
        <mxCell id="-veaZLfYOOAjsmNdZ5Y8-9" value="M-N" style="text;html=1;align=center;verticalAlign=middle;whiteSpace=wrap;rounded=0;fontFamily=Architects Daughter;fontSource=https%3A%2F%2Ffonts.googleapis.com%2Fcss%3Ffamily%3DArchitects%2BDaughter;fontSize=18;" vertex="1" parent="1">
          <mxGeometry x="40" y="300" width="80" height="30" as="geometry" />
        </mxCell>
        <mxCell id="-veaZLfYOOAjsmNdZ5Y8-10" value="O-P-R" style="text;html=1;align=center;verticalAlign=middle;whiteSpace=wrap;rounded=0;fontFamily=Architects Daughter;fontSource=https%3A%2F%2Ffonts.googleapis.com%2Fcss%3Ffamily%3DArchitects%2BDaughter;fontSize=18;" vertex="1" parent="1">
          <mxGeometry x="120" y="300" width="80" height="30" as="geometry" />
        </mxCell>
        <mxCell id="-veaZLfYOOAjsmNdZ5Y8-11" value="S-T" style="text;html=1;align=center;verticalAlign=middle;whiteSpace=wrap;rounded=0;fontFamily=Architects Daughter;fontSource=https%3A%2F%2Ffonts.googleapis.com%2Fcss%3Ffamily%3DArchitects%2BDaughter;fontSize=18;" vertex="1" parent="1">
          <mxGeometry x="200" y="300" width="80" height="30" as="geometry" />
        </mxCell>
        <mxCell id="-veaZLfYOOAjsmNdZ5Y8-12" value="V-Y" style="text;html=1;align=center;verticalAlign=middle;whiteSpace=wrap;rounded=0;fontFamily=Architects Daughter;fontSource=https%3A%2F%2Ffonts.googleapis.com%2Fcss%3Ffamily%3DArchitects%2BDaughter;fontSize=18;" vertex="1" parent="1">
          <mxGeometry x="280" y="300" width="80" height="30" as="geometry" />
        </mxCell>
        <mxCell id="-veaZLfYOOAjsmNdZ5Y8-14" value="Ana" style="text;html=1;align=center;verticalAlign=middle;whiteSpace=wrap;rounded=0;fontFamily=Architects Daughter;fontSource=https%3A%2F%2Ffonts.googleapis.com%2Fcss%3Ffamily%3DArchitects%2BDaughter;fontSize=18;" vertex="1" parent="1">
          <mxGeometry x="470" y="-70" width="80" height="30" as="geometry" />
        </mxCell>
        <mxCell id="-veaZLfYOOAjsmNdZ5Y8-15" value="A" style="text;html=1;align=center;verticalAlign=middle;whiteSpace=wrap;rounded=0;fontFamily=Architects Daughter;fontSource=https%3A%2F%2Ffonts.googleapis.com%2Fcss%3Ffamily%3DArchitects%2BDaughter;fontSize=18;" vertex="1" parent="1">
          <mxGeometry x="550" y="-70" width="80" height="30" as="geometry" />
        </mxCell>
        <mxCell id="-veaZLfYOOAjsmNdZ5Y8-16" value="B-C" style="text;html=1;align=center;verticalAlign=middle;whiteSpace=wrap;rounded=0;fontFamily=Architects Daughter;fontSource=https%3A%2F%2Ffonts.googleapis.com%2Fcss%3Ffamily%3DArchitects%2BDaughter;fontSize=18;" vertex="1" parent="1">
          <mxGeometry x="630" y="-70" width="80" height="30" as="geometry" />
        </mxCell>
        <mxCell id="-veaZLfYOOAjsmNdZ5Y8-18" value="D-E-G" style="text;html=1;align=center;verticalAlign=middle;whiteSpace=wrap;rounded=0;fontFamily=Architects Daughter;fontSource=https%3A%2F%2Ffonts.googleapis.com%2Fcss%3Ffamily%3DArchitects%2BDaughter;fontSize=18;" vertex="1" parent="1">
          <mxGeometry x="710" y="-70" width="80" height="30" as="geometry" />
        </mxCell>
        <mxCell id="-veaZLfYOOAjsmNdZ5Y8-19" value="H-I-J" style="text;html=1;align=center;verticalAlign=middle;whiteSpace=wrap;rounded=0;fontFamily=Architects Daughter;fontSource=https%3A%2F%2Ffonts.googleapis.com%2Fcss%3Ffamily%3DArchitects%2BDaughter;fontSize=18;" vertex="1" parent="1">
          <mxGeometry x="790" y="-70" width="80" height="30" as="geometry" />
        </mxCell>
        <mxCell id="-veaZLfYOOAjsmNdZ5Y8-20" value="L" style="text;html=1;align=center;verticalAlign=middle;whiteSpace=wrap;rounded=0;fontFamily=Architects Daughter;fontSource=https%3A%2F%2Ffonts.googleapis.com%2Fcss%3Ffamily%3DArchitects%2BDaughter;fontSize=18;" vertex="1" parent="1">
          <mxGeometry x="470" y="300" width="80" height="30" as="geometry" />
        </mxCell>
        <mxCell id="-veaZLfYOOAjsmNdZ5Y8-21" value="Maria" style="text;html=1;align=center;verticalAlign=middle;whiteSpace=wrap;rounded=0;fontFamily=Architects Daughter;fontSource=https%3A%2F%2Ffonts.googleapis.com%2Fcss%3Ffamily%3DArchitects%2BDaughter;fontSize=18;" vertex="1" parent="1">
          <mxGeometry x="560" y="370" width="80" height="30" as="geometry" />
        </mxCell>
        <mxCell id="-veaZLfYOOAjsmNdZ5Y8-22" value="M" style="text;html=1;align=center;verticalAlign=middle;whiteSpace=wrap;rounded=0;fontFamily=Architects Daughter;fontSource=https%3A%2F%2Ffonts.googleapis.com%2Fcss%3Ffamily%3DArchitects%2BDaughter;fontSize=18;" vertex="1" parent="1">
          <mxGeometry x="650" y="310" width="80" height="30" as="geometry" />
        </mxCell>
        <mxCell id="-veaZLfYOOAjsmNdZ5Y8-23" value="N-O-P-R" style="text;html=1;align=center;verticalAlign=middle;whiteSpace=wrap;rounded=0;fontFamily=Architects Daughter;fontSource=https%3A%2F%2Ffonts.googleapis.com%2Fcss%3Ffamily%3DArchitects%2BDaughter;fontSize=18;" vertex="1" parent="1">
          <mxGeometry x="730" y="300" width="80" height="30" as="geometry" />
        </mxCell>
        <mxCell id="-veaZLfYOOAjsmNdZ5Y8-24" value="S-V-Y-Z" style="text;html=1;align=center;verticalAlign=middle;whiteSpace=wrap;rounded=0;fontFamily=Architects Daughter;fontSource=https%3A%2F%2Ffonts.googleapis.com%2Fcss%3Ffamily%3DArchitects%2BDaughter;fontSize=18;" vertex="1" parent="1">
          <mxGeometry x="810" y="300" width="80" height="30" as="geometry" />
        </mxCell>
        <mxCell id="-veaZLfYOOAjsmNdZ5Y8-25" value="" style="endArrow=none;html=1;rounded=0;sketch=1;hachureGap=4;jiggle=2;curveFitting=1;fontFamily=Architects Daughter;fontSource=https%3A%2F%2Ffonts.googleapis.com%2Fcss%3Ffamily%3DArchitects%2BDaughter;fontStyle=0;endSize=6;strokeWidth=3;fillColor=#f5f5f5;strokeColor=#666666;" edge="1" parent="1">
          <mxGeometry width="50" height="50" relative="1" as="geometry">
            <mxPoint x="467" y="380" as="sourcePoint" />
            <mxPoint x="467" y="-160" as="targetPoint" />
          </mxGeometry>
        </mxCell>
        <mxCell id="-veaZLfYOOAjsmNdZ5Y8-28" value="Masculinos" style="ellipse;shape=cloud;whiteSpace=wrap;html=1;sketch=1;hachureGap=4;jiggle=2;curveFitting=1;fontFamily=Architects Daughter;fontSource=https%3A%2F%2Ffonts.googleapis.com%2Fcss%3Ffamily%3DArchitects%2BDaughter;fillColor=#dae8fc;strokeColor=#6c8ebf;" vertex="1" parent="1">
          <mxGeometry x="130" y="-160" width="120" height="80" as="geometry" />
        </mxCell>
        <mxCell id="-veaZLfYOOAjsmNdZ5Y8-29" value="Femininos" style="ellipse;shape=cloud;whiteSpace=wrap;html=1;sketch=1;hachureGap=4;jiggle=2;curveFitting=1;fontFamily=Architects Daughter;fontSource=https%3A%2F%2Ffonts.googleapis.com%2Fcss%3Ffamily%3DArchitects%2BDaughter;fillColor=#f8cecc;strokeColor=#b85450;" vertex="1" parent="1">
          <mxGeometry x="620" y="-160" width="120" height="80" as="geometry" />
        </mxCell>
      </root>
    </mxGraphModel>
  </diagram>
  <diagram name="NomesClassificados-Encontrado" id="ax1k--QG1_EhR69VEepr">
    <mxGraphModel dx="1834" dy="1244" grid="1" gridSize="10" guides="1" tooltips="1" connect="1" arrows="1" fold="1" page="0" pageScale="1" pageWidth="827" pageHeight="1169" math="0" shadow="0">
      <root>
        <mxCell id="6HO6c__39NX_If_ZyWu6-0" />
        <mxCell id="6HO6c__39NX_If_ZyWu6-1" parent="6HO6c__39NX_If_ZyWu6-0" />
        <mxCell id="6HO6c__39NX_If_ZyWu6-2" value="" style="swimlane;startSize=0;sketch=1;hachureGap=4;jiggle=2;curveFitting=1;fontFamily=Architects Daughter;fontSource=https%3A%2F%2Ffonts.googleapis.com%2Fcss%3Ffamily%3DArchitects%2BDaughter;fillColor=#1ba1e2;strokeColor=#006EAF;fontColor=#ffffff;" vertex="1" parent="6HO6c__39NX_If_ZyWu6-1">
          <mxGeometry x="-40" y="-40" width="80" height="170" as="geometry" />
        </mxCell>
        <mxCell id="6HO6c__39NX_If_ZyWu6-3" value="Anthony&#xa;Anthony Gabriel&#xa;Antônio&#xa;Apollo&#xa;Arthur&#xa;Arthur Miguel&#xa;Asafe&#xa;Augusto" style="text;html=1;align=center;verticalAlign=middle;whiteSpace=wrap;rounded=0;fontFamily=Architects Daughter;fontSource=https%3A%2F%2Ffonts.googleapis.com%2Fcss%3Ffamily%3DArchitects%2BDaughter;" vertex="1" parent="6HO6c__39NX_If_ZyWu6-2">
          <mxGeometry x="10" y="70" width="60" height="30" as="geometry" />
        </mxCell>
        <mxCell id="6HO6c__39NX_If_ZyWu6-4" value="" style="swimlane;startSize=0;sketch=1;hachureGap=4;jiggle=2;curveFitting=1;fontFamily=Architects Daughter;fontSource=https%3A%2F%2Ffonts.googleapis.com%2Fcss%3Ffamily%3DArchitects%2BDaughter;fillColor=#1ba1e2;strokeColor=#006EAF;fontColor=#ffffff;" vertex="1" parent="6HO6c__39NX_If_ZyWu6-1">
          <mxGeometry x="40" y="-40" width="80" height="170" as="geometry" />
        </mxCell>
        <mxCell id="6HO6c__39NX_If_ZyWu6-5" value="&lt;div&gt;Benício&lt;/div&gt;&lt;div&gt;Benjamin&lt;/div&gt;&lt;div&gt;Bento&lt;/div&gt;&lt;div&gt;Bernardo&lt;/div&gt;&lt;div&gt;Breno&lt;/div&gt;&lt;div&gt;Bryan&lt;/div&gt;&lt;div&gt;Caio&lt;/div&gt;&lt;div&gt;Caleb&lt;/div&gt;&lt;div&gt;Cauã&lt;/div&gt;" style="text;html=1;align=center;verticalAlign=middle;whiteSpace=wrap;rounded=0;fontFamily=Architects Daughter;fontSource=https%3A%2F%2Ffonts.googleapis.com%2Fcss%3Ffamily%3DArchitects%2BDaughter;" vertex="1" parent="6HO6c__39NX_If_ZyWu6-4">
          <mxGeometry x="10" y="70" width="60" height="30" as="geometry" />
        </mxCell>
        <mxCell id="6HO6c__39NX_If_ZyWu6-6" value="" style="swimlane;startSize=0;sketch=1;hachureGap=4;jiggle=2;curveFitting=1;fontFamily=Architects Daughter;fontSource=https%3A%2F%2Ffonts.googleapis.com%2Fcss%3Ffamily%3DArchitects%2BDaughter;fillColor=#1ba1e2;strokeColor=#006EAF;fontColor=#ffffff;" vertex="1" parent="6HO6c__39NX_If_ZyWu6-1">
          <mxGeometry x="120" y="-40" width="80" height="170" as="geometry" />
        </mxCell>
        <mxCell id="6HO6c__39NX_If_ZyWu6-7" value="&lt;div&gt;Daniel&lt;/div&gt;&lt;div&gt;Davi&lt;/div&gt;&lt;div&gt;Davi Lucas&lt;/div&gt;&lt;div&gt;Davi Lucca&lt;/div&gt;&lt;div&gt;Davi Luiz&lt;/div&gt;&lt;div&gt;Davi Miguel&lt;/div&gt;&lt;div&gt;Dom&lt;/div&gt;&lt;div&gt;Dominic&lt;/div&gt;" style="text;html=1;align=center;verticalAlign=middle;whiteSpace=wrap;rounded=0;fontFamily=Architects Daughter;fontSource=https%3A%2F%2Ffonts.googleapis.com%2Fcss%3Ffamily%3DArchitects%2BDaughter;" vertex="1" parent="6HO6c__39NX_If_ZyWu6-6">
          <mxGeometry x="10" y="70" width="70" height="30" as="geometry" />
        </mxCell>
        <mxCell id="6HO6c__39NX_If_ZyWu6-8" value="" style="swimlane;startSize=0;sketch=1;hachureGap=4;jiggle=2;curveFitting=1;fontFamily=Architects Daughter;fontSource=https%3A%2F%2Ffonts.googleapis.com%2Fcss%3Ffamily%3DArchitects%2BDaughter;fillColor=#1ba1e2;strokeColor=#006EAF;fontColor=#ffffff;" vertex="1" parent="6HO6c__39NX_If_ZyWu6-1">
          <mxGeometry x="200" y="-40" width="80" height="170" as="geometry" />
        </mxCell>
        <mxCell id="6HO6c__39NX_If_ZyWu6-9" value="&lt;div&gt;Eduardo&lt;/div&gt;&lt;div&gt;Emanuel&lt;/div&gt;&lt;div&gt;Enrico&lt;/div&gt;&lt;div&gt;Enzo&lt;/div&gt;&lt;div&gt;Enzo Gabriel&lt;/div&gt;&lt;div&gt;Erick&lt;/div&gt;&lt;div&gt;Estevão&lt;/div&gt;&lt;div&gt;Felipe&lt;/div&gt;&lt;div&gt;Francisco&lt;/div&gt;" style="text;html=1;align=center;verticalAlign=middle;whiteSpace=wrap;rounded=0;fontFamily=Architects Daughter;fontSource=https%3A%2F%2Ffonts.googleapis.com%2Fcss%3Ffamily%3DArchitects%2BDaughter;" vertex="1" parent="6HO6c__39NX_If_ZyWu6-8">
          <mxGeometry x="10" y="70" width="60" height="30" as="geometry" />
        </mxCell>
        <mxCell id="6HO6c__39NX_If_ZyWu6-10" value="" style="swimlane;startSize=0;sketch=1;hachureGap=4;jiggle=2;curveFitting=1;fontFamily=Architects Daughter;fontSource=https%3A%2F%2Ffonts.googleapis.com%2Fcss%3Ffamily%3DArchitects%2BDaughter;fillColor=#1ba1e2;strokeColor=#006EAF;fontColor=#ffffff;" vertex="1" parent="6HO6c__39NX_If_ZyWu6-1">
          <mxGeometry x="280" y="-40" width="80" height="170" as="geometry" />
        </mxCell>
        <mxCell id="6HO6c__39NX_If_ZyWu6-11" value="&lt;div&gt;Gabriel&lt;/div&gt;&lt;div&gt;Gael&lt;/div&gt;&lt;div&gt;Guilherme&lt;/div&gt;&lt;div&gt;Gustavo&lt;/div&gt;&lt;div&gt;Heitor&lt;/div&gt;&lt;div&gt;Henrique&lt;/div&gt;&lt;div&gt;Henry&lt;/div&gt;&lt;div&gt;Isaac&lt;/div&gt;&lt;div&gt;Israel&lt;/div&gt;" style="text;html=1;align=center;verticalAlign=middle;whiteSpace=wrap;rounded=0;fontFamily=Architects Daughter;fontSource=https%3A%2F%2Ffonts.googleapis.com%2Fcss%3Ffamily%3DArchitects%2BDaughter;" vertex="1" parent="6HO6c__39NX_If_ZyWu6-10">
          <mxGeometry x="10" y="70" width="60" height="30" as="geometry" />
        </mxCell>
        <mxCell id="6HO6c__39NX_If_ZyWu6-12" value="" style="swimlane;startSize=0;sketch=1;hachureGap=4;jiggle=2;curveFitting=1;fontFamily=Architects Daughter;fontSource=https%3A%2F%2Ffonts.googleapis.com%2Fcss%3Ffamily%3DArchitects%2BDaughter;fillColor=#1ba1e2;strokeColor=#006EAF;fontColor=#ffffff;" vertex="1" parent="6HO6c__39NX_If_ZyWu6-1">
          <mxGeometry x="360" y="-40" width="100" height="170" as="geometry" />
        </mxCell>
        <mxCell id="6HO6c__39NX_If_ZyWu6-13" value="&lt;div&gt;João&lt;/div&gt;&lt;div&gt;João Gabriel&lt;/div&gt;&lt;div&gt;João Guilherme&lt;/div&gt;&lt;div&gt;João Lucas&lt;/div&gt;&lt;div&gt;João Miguel&lt;/div&gt;&lt;div&gt;João Pedro&lt;/div&gt;&lt;div&gt;João Vitor&lt;/div&gt;&lt;div&gt;Joaquim&lt;/div&gt;&lt;div&gt;&lt;span style=&quot;background-color: initial;&quot;&gt;José Miguel&lt;/span&gt;&lt;br&gt;&lt;/div&gt;&lt;div&gt;José Pedro&lt;/div&gt;&lt;div&gt;Josué&lt;/div&gt;" style="text;html=1;align=center;verticalAlign=middle;whiteSpace=wrap;rounded=0;fontFamily=Architects Daughter;fontSource=https%3A%2F%2Ffonts.googleapis.com%2Fcss%3Ffamily%3DArchitects%2BDaughter;" vertex="1" parent="6HO6c__39NX_If_ZyWu6-12">
          <mxGeometry x="5" y="70" width="90" height="30" as="geometry" />
        </mxCell>
        <mxCell id="6HO6c__39NX_If_ZyWu6-14" value="" style="swimlane;startSize=0;sketch=1;hachureGap=4;jiggle=2;curveFitting=1;fontFamily=Architects Daughter;fontSource=https%3A%2F%2Ffonts.googleapis.com%2Fcss%3Ffamily%3DArchitects%2BDaughter;fillColor=#1ba1e2;strokeColor=#006EAF;fontColor=#ffffff;" vertex="1" parent="6HO6c__39NX_If_ZyWu6-1">
          <mxGeometry x="40" y="130" width="80" height="170" as="geometry" />
        </mxCell>
        <mxCell id="6HO6c__39NX_If_ZyWu6-15" value="&lt;div&gt;Martin&lt;/div&gt;&lt;div&gt;Matheus&lt;/div&gt;&lt;div&gt;Mathias&lt;/div&gt;&lt;div&gt;Matteo&lt;/div&gt;&lt;div&gt;Miguel&lt;/div&gt;&lt;div&gt;Murilo&lt;/div&gt;&lt;div&gt;Nathan&lt;/div&gt;&lt;div&gt;Nicolas&lt;/div&gt;&lt;div&gt;Noah&lt;/div&gt;" style="text;html=1;align=center;verticalAlign=middle;whiteSpace=wrap;rounded=0;fontFamily=Architects Daughter;fontSource=https%3A%2F%2Ffonts.googleapis.com%2Fcss%3Ffamily%3DArchitects%2BDaughter;" vertex="1" parent="6HO6c__39NX_If_ZyWu6-14">
          <mxGeometry x="10" y="70" width="60" height="30" as="geometry" />
        </mxCell>
        <mxCell id="6HO6c__39NX_If_ZyWu6-16" value="" style="swimlane;startSize=0;sketch=1;hachureGap=4;jiggle=2;curveFitting=1;fontFamily=Architects Daughter;fontSource=https%3A%2F%2Ffonts.googleapis.com%2Fcss%3Ffamily%3DArchitects%2BDaughter;fillColor=#1ba1e2;strokeColor=#006EAF;fontColor=#ffffff;" vertex="1" parent="6HO6c__39NX_If_ZyWu6-14">
          <mxGeometry x="-80" width="80" height="170" as="geometry" />
        </mxCell>
        <mxCell id="6HO6c__39NX_If_ZyWu6-17" value="&lt;div&gt;Leonardo&lt;/div&gt;&lt;div&gt;Léonovo&lt;/div&gt;&lt;div&gt;Levi&lt;/div&gt;&lt;div&gt;Liam&lt;/div&gt;&lt;div&gt;Lorenzo&lt;/div&gt;&lt;div&gt;Luan&lt;/div&gt;&lt;div&gt;Lucas&lt;/div&gt;&lt;div&gt;Lucca&lt;/div&gt;&lt;div&gt;Luiz Henrique&lt;/div&gt;&lt;div&gt;Luiz Miguel&lt;/div&gt;" style="text;html=1;align=center;verticalAlign=middle;whiteSpace=wrap;rounded=0;fontFamily=Architects Daughter;fontSource=https%3A%2F%2Ffonts.googleapis.com%2Fcss%3Ffamily%3DArchitects%2BDaughter;" vertex="1" parent="6HO6c__39NX_If_ZyWu6-16">
          <mxGeometry y="70" width="80" height="30" as="geometry" />
        </mxCell>
        <mxCell id="6HO6c__39NX_If_ZyWu6-18" value="" style="swimlane;startSize=0;sketch=1;hachureGap=4;jiggle=2;curveFitting=1;fontFamily=Architects Daughter;fontSource=https%3A%2F%2Ffonts.googleapis.com%2Fcss%3Ffamily%3DArchitects%2BDaughter;fillColor=#1ba1e2;strokeColor=#006EAF;fontColor=#ffffff;" vertex="1" parent="6HO6c__39NX_If_ZyWu6-1">
          <mxGeometry x="120" y="130" width="80" height="170" as="geometry" />
        </mxCell>
        <mxCell id="6HO6c__39NX_If_ZyWu6-19" value="&lt;div&gt;Oliver&lt;/div&gt;&lt;div&gt;Otávio&lt;/div&gt;&lt;div&gt;Pedro&lt;/div&gt;&lt;div&gt;Pedro H&lt;/div&gt;&lt;div&gt;Pietro&lt;/div&gt;&lt;div&gt;Rael&lt;/div&gt;&lt;div&gt;Rafael&lt;/div&gt;&lt;div&gt;Raul&lt;/div&gt;&lt;div&gt;Ravi&lt;/div&gt;&lt;div&gt;Ravi Lucca&lt;/div&gt;&lt;div&gt;Ryan&lt;/div&gt;" style="text;html=1;align=center;verticalAlign=middle;whiteSpace=wrap;rounded=0;fontFamily=Architects Daughter;fontSource=https%3A%2F%2Ffonts.googleapis.com%2Fcss%3Ffamily%3DArchitects%2BDaughter;" vertex="1" parent="6HO6c__39NX_If_ZyWu6-18">
          <mxGeometry x="5" y="70" width="70" height="30" as="geometry" />
        </mxCell>
        <mxCell id="6HO6c__39NX_If_ZyWu6-20" value="" style="swimlane;startSize=0;sketch=1;hachureGap=4;jiggle=2;curveFitting=1;fontFamily=Architects Daughter;fontSource=https%3A%2F%2Ffonts.googleapis.com%2Fcss%3Ffamily%3DArchitects%2BDaughter;fillColor=#1ba1e2;strokeColor=#006EAF;fontColor=#ffffff;" vertex="1" parent="6HO6c__39NX_If_ZyWu6-1">
          <mxGeometry x="280" y="130" width="80" height="170" as="geometry" />
        </mxCell>
        <mxCell id="6HO6c__39NX_If_ZyWu6-21" value="&lt;div&gt;Valentim&lt;/div&gt;&lt;div&gt;Vicente&lt;/div&gt;&lt;div&gt;Vinícius&lt;/div&gt;&lt;div&gt;Vitor&lt;/div&gt;&lt;div&gt;Yan&lt;/div&gt;&lt;div&gt;Yuri&lt;/div&gt;" style="text;html=1;align=center;verticalAlign=middle;whiteSpace=wrap;rounded=0;fontFamily=Architects Daughter;fontSource=https%3A%2F%2Ffonts.googleapis.com%2Fcss%3Ffamily%3DArchitects%2BDaughter;" vertex="1" parent="6HO6c__39NX_If_ZyWu6-20">
          <mxGeometry x="5" y="70" width="70" height="30" as="geometry" />
        </mxCell>
        <mxCell id="6HO6c__39NX_If_ZyWu6-22" value="" style="swimlane;startSize=0;sketch=1;hachureGap=4;jiggle=2;curveFitting=1;fontFamily=Architects Daughter;fontSource=https%3A%2F%2Ffonts.googleapis.com%2Fcss%3Ffamily%3DArchitects%2BDaughter;fillColor=#1ba1e2;strokeColor=#006EAF;fontColor=#ffffff;" vertex="1" parent="6HO6c__39NX_If_ZyWu6-1">
          <mxGeometry x="200" y="130" width="80" height="170" as="geometry" />
        </mxCell>
        <mxCell id="6HO6c__39NX_If_ZyWu6-23" value="&lt;div&gt;Samuel&lt;/div&gt;&lt;div&gt;Thales&lt;/div&gt;&lt;div&gt;Théo&lt;/div&gt;&lt;div&gt;Theodoro&lt;/div&gt;&lt;div&gt;Thiago&lt;/div&gt;&lt;div&gt;Thomas&lt;/div&gt;&lt;div&gt;Tomás&lt;/div&gt;" style="text;html=1;align=center;verticalAlign=middle;whiteSpace=wrap;rounded=0;fontFamily=Architects Daughter;fontSource=https%3A%2F%2Ffonts.googleapis.com%2Fcss%3Ffamily%3DArchitects%2BDaughter;" vertex="1" parent="6HO6c__39NX_If_ZyWu6-22">
          <mxGeometry x="5" y="70" width="70" height="30" as="geometry" />
        </mxCell>
        <mxCell id="6HO6c__39NX_If_ZyWu6-24" value="" style="swimlane;startSize=0;sketch=1;hachureGap=4;jiggle=2;curveFitting=1;fontFamily=Architects Daughter;fontSource=https%3A%2F%2Ffonts.googleapis.com%2Fcss%3Ffamily%3DArchitects%2BDaughter;fillColor=#d80073;fontColor=#ffffff;strokeColor=#A50040;" vertex="1" parent="6HO6c__39NX_If_ZyWu6-1">
          <mxGeometry x="470" y="-40" width="80" height="170" as="geometry" />
        </mxCell>
        <mxCell id="6HO6c__39NX_If_ZyWu6-25" value="&lt;div&gt;Ana&lt;/div&gt;&lt;div&gt;Ana Beatriz&lt;/div&gt;&lt;div&gt;Ana Cecília&lt;/div&gt;&lt;div&gt;Ana Clara&lt;/div&gt;&lt;div&gt;Ana Júlia&lt;/div&gt;&lt;div&gt;Ana Laura&lt;/div&gt;&lt;div&gt;Ana Lívia&lt;/div&gt;&lt;div&gt;Ana Liz&lt;/div&gt;&lt;div&gt;Ana Luísa&lt;/div&gt;&lt;div&gt;Ana Vitória&lt;/div&gt;" style="text;html=1;align=center;verticalAlign=middle;whiteSpace=wrap;rounded=0;fontFamily=Architects Daughter;fontSource=https%3A%2F%2Ffonts.googleapis.com%2Fcss%3Ffamily%3DArchitects%2BDaughter;" vertex="1" parent="6HO6c__39NX_If_ZyWu6-24">
          <mxGeometry x="5" y="70" width="70" height="30" as="geometry" />
        </mxCell>
        <mxCell id="6HO6c__39NX_If_ZyWu6-26" value="" style="swimlane;startSize=0;sketch=1;hachureGap=4;jiggle=2;curveFitting=1;fontFamily=Architects Daughter;fontSource=https%3A%2F%2Ffonts.googleapis.com%2Fcss%3Ffamily%3DArchitects%2BDaughter;fillColor=#d80073;fontColor=#ffffff;strokeColor=#A50040;" vertex="1" parent="6HO6c__39NX_If_ZyWu6-1">
          <mxGeometry x="550" y="-40" width="80" height="170" as="geometry" />
        </mxCell>
        <mxCell id="6HO6c__39NX_If_ZyWu6-27" value="&lt;div&gt;Agatha&lt;/div&gt;&lt;div&gt;Alana&lt;/div&gt;&lt;div&gt;Alice&lt;/div&gt;&lt;div&gt;Alícia&lt;/div&gt;&lt;div&gt;Antonella&lt;/div&gt;&lt;div&gt;Aurora&lt;/div&gt;&lt;div&gt;Ayla&lt;/div&gt;&lt;div&gt;Ayla Sophia&lt;/div&gt;" style="text;html=1;align=center;verticalAlign=middle;whiteSpace=wrap;rounded=0;fontFamily=Architects Daughter;fontSource=https%3A%2F%2Ffonts.googleapis.com%2Fcss%3Ffamily%3DArchitects%2BDaughter;" vertex="1" parent="6HO6c__39NX_If_ZyWu6-26">
          <mxGeometry x="5" y="70" width="70" height="30" as="geometry" />
        </mxCell>
        <mxCell id="6HO6c__39NX_If_ZyWu6-28" value="" style="swimlane;startSize=0;sketch=1;hachureGap=4;jiggle=2;curveFitting=1;fontFamily=Architects Daughter;fontSource=https%3A%2F%2Ffonts.googleapis.com%2Fcss%3Ffamily%3DArchitects%2BDaughter;fillColor=#d80073;fontColor=#ffffff;strokeColor=#A50040;" vertex="1" parent="6HO6c__39NX_If_ZyWu6-26">
          <mxGeometry x="180" y="170" width="80" height="170" as="geometry" />
        </mxCell>
        <mxCell id="6HO6c__39NX_If_ZyWu6-29" value="&lt;div&gt;Nicole&lt;/div&gt;&lt;div&gt;Olívia&lt;/div&gt;&lt;div&gt;Pérola&lt;/div&gt;&lt;div&gt;Rafaela&lt;/div&gt;&lt;div&gt;Rebeca&lt;/div&gt;" style="text;html=1;align=center;verticalAlign=middle;whiteSpace=wrap;rounded=0;fontFamily=Architects Daughter;fontSource=https%3A%2F%2Ffonts.googleapis.com%2Fcss%3Ffamily%3DArchitects%2BDaughter;" vertex="1" parent="6HO6c__39NX_If_ZyWu6-28">
          <mxGeometry x="5" y="70" width="70" height="30" as="geometry" />
        </mxCell>
        <mxCell id="Zgv1KqJIGgv8L9G-yMpT-0" value="" style="shape=flexArrow;endArrow=classic;html=1;rounded=0;sketch=1;hachureGap=4;jiggle=2;curveFitting=1;fontFamily=Architects Daughter;fontSource=https%3A%2F%2Ffonts.googleapis.com%2Fcss%3Ffamily%3DArchitects%2BDaughter;fillColor=#000000;strokeColor=#000000;" edge="1" parent="6HO6c__39NX_If_ZyWu6-28">
          <mxGeometry width="50" height="50" relative="1" as="geometry">
            <mxPoint x="134" y="135" as="sourcePoint" />
            <mxPoint x="54" y="65" as="targetPoint" />
          </mxGeometry>
        </mxCell>
        <mxCell id="Zgv1KqJIGgv8L9G-yMpT-1" value="" style="shape=flexArrow;endArrow=classic;html=1;rounded=0;sketch=1;hachureGap=4;jiggle=2;curveFitting=1;fontFamily=Architects Daughter;fontSource=https%3A%2F%2Ffonts.googleapis.com%2Fcss%3Ffamily%3DArchitects%2BDaughter;fillColor=#000000;strokeColor=#000000;" edge="1" parent="6HO6c__39NX_If_ZyWu6-28">
          <mxGeometry width="50" height="50" relative="1" as="geometry">
            <mxPoint x="-56" y="135" as="sourcePoint" />
            <mxPoint x="24" y="65" as="targetPoint" />
          </mxGeometry>
        </mxCell>
        <mxCell id="Zgv1KqJIGgv8L9G-yMpT-2" value="" style="shape=flexArrow;endArrow=classic;html=1;rounded=0;sketch=1;hachureGap=4;jiggle=2;curveFitting=1;fontFamily=Architects Daughter;fontSource=https%3A%2F%2Ffonts.googleapis.com%2Fcss%3Ffamily%3DArchitects%2BDaughter;fillColor=#000000;strokeColor=#000000;" edge="1" parent="6HO6c__39NX_If_ZyWu6-28">
          <mxGeometry width="50" height="50" relative="1" as="geometry">
            <mxPoint x="-46" y="-25" as="sourcePoint" />
            <mxPoint x="34" y="45" as="targetPoint" />
          </mxGeometry>
        </mxCell>
        <mxCell id="Zgv1KqJIGgv8L9G-yMpT-3" value="" style="shape=flexArrow;endArrow=classic;html=1;rounded=0;sketch=1;hachureGap=4;jiggle=2;curveFitting=1;fontFamily=Architects Daughter;fontSource=https%3A%2F%2Ffonts.googleapis.com%2Fcss%3Ffamily%3DArchitects%2BDaughter;fillColor=#000000;strokeColor=#000000;" edge="1" parent="6HO6c__39NX_If_ZyWu6-28">
          <mxGeometry width="50" height="50" relative="1" as="geometry">
            <mxPoint x="134" y="-25" as="sourcePoint" />
            <mxPoint x="54" y="45" as="targetPoint" />
          </mxGeometry>
        </mxCell>
        <mxCell id="6HO6c__39NX_If_ZyWu6-30" value="" style="swimlane;startSize=0;sketch=1;hachureGap=4;jiggle=2;curveFitting=1;fontFamily=Architects Daughter;fontSource=https%3A%2F%2Ffonts.googleapis.com%2Fcss%3Ffamily%3DArchitects%2BDaughter;fillColor=#d80073;fontColor=#ffffff;strokeColor=#A50040;" vertex="1" parent="6HO6c__39NX_If_ZyWu6-1">
          <mxGeometry x="630" y="-40" width="160" height="170" as="geometry" />
        </mxCell>
        <mxCell id="6HO6c__39NX_If_ZyWu6-31" value="&lt;div&gt;Beatriz&lt;/div&gt;&lt;div&gt;Bella&lt;/div&gt;&lt;div&gt;Betina&lt;/div&gt;&lt;div&gt;Bianca&lt;/div&gt;&lt;div&gt;Catarina&lt;/div&gt;&lt;div&gt;Cecília&lt;/div&gt;&lt;div&gt;Chloe&lt;/div&gt;&lt;div&gt;Clara&lt;/div&gt;&lt;div&gt;Clarice&lt;/div&gt;" style="text;html=1;align=center;verticalAlign=middle;whiteSpace=wrap;rounded=0;fontFamily=Architects Daughter;fontSource=https%3A%2F%2Ffonts.googleapis.com%2Fcss%3Ffamily%3DArchitects%2BDaughter;" vertex="1" parent="6HO6c__39NX_If_ZyWu6-30">
          <mxGeometry x="5" y="70" width="70" height="30" as="geometry" />
        </mxCell>
        <mxCell id="6HO6c__39NX_If_ZyWu6-32" value="" style="swimlane;startSize=0;sketch=1;hachureGap=4;jiggle=2;curveFitting=1;fontFamily=Architects Daughter;fontSource=https%3A%2F%2Ffonts.googleapis.com%2Fcss%3Ffamily%3DArchitects%2BDaughter;fillColor=#d80073;fontColor=#ffffff;strokeColor=#A50040;" vertex="1" parent="6HO6c__39NX_If_ZyWu6-30">
          <mxGeometry x="80" width="80" height="170" as="geometry" />
        </mxCell>
        <mxCell id="6HO6c__39NX_If_ZyWu6-33" value="&lt;div&gt;Diana&lt;/div&gt;&lt;div&gt;Eduarda&lt;/div&gt;&lt;div&gt;Elis&lt;/div&gt;&lt;div&gt;Elisa&lt;/div&gt;&lt;div&gt;Eloá&lt;/div&gt;&lt;div&gt;Emanuelly&lt;/div&gt;&lt;div&gt;Emilly&lt;/div&gt;&lt;div&gt;Esther&lt;/div&gt;&lt;div&gt;Gabriela&lt;/div&gt;&lt;div&gt;Giovanna&lt;/div&gt;" style="text;html=1;align=center;verticalAlign=middle;whiteSpace=wrap;rounded=0;fontFamily=Architects Daughter;fontSource=https%3A%2F%2Ffonts.googleapis.com%2Fcss%3Ffamily%3DArchitects%2BDaughter;" vertex="1" parent="6HO6c__39NX_If_ZyWu6-32">
          <mxGeometry x="5" y="70" width="70" height="30" as="geometry" />
        </mxCell>
        <mxCell id="6HO6c__39NX_If_ZyWu6-34" value="" style="swimlane;startSize=0;sketch=1;hachureGap=4;jiggle=2;curveFitting=1;fontFamily=Architects Daughter;fontSource=https%3A%2F%2Ffonts.googleapis.com%2Fcss%3Ffamily%3DArchitects%2BDaughter;fillColor=#d80073;strokeColor=#A50040;fontColor=#ffffff;" vertex="1" parent="6HO6c__39NX_If_ZyWu6-1">
          <mxGeometry x="810" y="130" width="80" height="170" as="geometry" />
        </mxCell>
        <mxCell id="6HO6c__39NX_If_ZyWu6-35" value="&lt;div&gt;Sarah&lt;/div&gt;&lt;div&gt;Sophia&lt;/div&gt;&lt;div&gt;Stella&lt;/div&gt;&lt;div&gt;Valentina&lt;/div&gt;&lt;div&gt;Vitória&lt;/div&gt;&lt;div&gt;Yasmin&lt;/div&gt;&lt;div&gt;Zoe&lt;/div&gt;" style="text;html=1;align=center;verticalAlign=middle;whiteSpace=wrap;rounded=0;fontFamily=Architects Daughter;fontSource=https%3A%2F%2Ffonts.googleapis.com%2Fcss%3Ffamily%3DArchitects%2BDaughter;" vertex="1" parent="6HO6c__39NX_If_ZyWu6-34">
          <mxGeometry x="5" y="70" width="70" height="30" as="geometry" />
        </mxCell>
        <mxCell id="6HO6c__39NX_If_ZyWu6-36" value="" style="swimlane;startSize=0;sketch=1;hachureGap=4;jiggle=2;curveFitting=1;fontFamily=Architects Daughter;fontSource=https%3A%2F%2Ffonts.googleapis.com%2Fcss%3Ffamily%3DArchitects%2BDaughter;fillColor=#d80073;strokeColor=#A50040;fontColor=#ffffff;" vertex="1" parent="6HO6c__39NX_If_ZyWu6-1">
          <mxGeometry x="790" y="-40" width="80" height="170" as="geometry" />
        </mxCell>
        <mxCell id="6HO6c__39NX_If_ZyWu6-37" value="&lt;div&gt;Hadassa&lt;/div&gt;&lt;div&gt;Helena&lt;/div&gt;&lt;div&gt;Heloísa&lt;/div&gt;&lt;div&gt;Heloíse&lt;/div&gt;&lt;div&gt;Isabel&lt;/div&gt;&lt;div&gt;Isabella&lt;/div&gt;&lt;div&gt;Isabelly&lt;/div&gt;&lt;div&gt;Isadora&lt;/div&gt;&lt;div&gt;Isis&lt;/div&gt;&lt;div&gt;&lt;div&gt;Jade&lt;/div&gt;&lt;div&gt;Joana&lt;/div&gt;&lt;div&gt;Júlia&lt;/div&gt;&lt;/div&gt;" style="text;html=1;align=center;verticalAlign=middle;whiteSpace=wrap;rounded=0;fontFamily=Architects Daughter;fontSource=https%3A%2F%2Ffonts.googleapis.com%2Fcss%3Ffamily%3DArchitects%2BDaughter;" vertex="1" parent="6HO6c__39NX_If_ZyWu6-36">
          <mxGeometry x="5" y="70" width="70" height="30" as="geometry" />
        </mxCell>
        <mxCell id="6HO6c__39NX_If_ZyWu6-38" value="" style="swimlane;startSize=0;sketch=1;hachureGap=4;jiggle=2;curveFitting=1;fontFamily=Architects Daughter;fontSource=https%3A%2F%2Ffonts.googleapis.com%2Fcss%3Ffamily%3DArchitects%2BDaughter;fillColor=#d80073;fontColor=#ffffff;strokeColor=#A50040;" vertex="1" parent="6HO6c__39NX_If_ZyWu6-1">
          <mxGeometry x="470" y="130" width="80" height="170" as="geometry" />
        </mxCell>
        <mxCell id="6HO6c__39NX_If_ZyWu6-39" value="&lt;div&gt;Laís&lt;/div&gt;&lt;div&gt;Lara&lt;/div&gt;&lt;div&gt;Laura&lt;/div&gt;&lt;div&gt;Lavínia&lt;/div&gt;&lt;div&gt;Letícia&lt;/div&gt;&lt;div&gt;Lívia&lt;/div&gt;&lt;div&gt;Liz&lt;/div&gt;&lt;div&gt;Lorena&lt;/div&gt;&lt;div&gt;Louise&lt;/div&gt;&lt;div&gt;Luísa&lt;/div&gt;&lt;div&gt;Luna&lt;/div&gt;" style="text;html=1;align=center;verticalAlign=middle;whiteSpace=wrap;rounded=0;fontFamily=Architects Daughter;fontSource=https%3A%2F%2Ffonts.googleapis.com%2Fcss%3Ffamily%3DArchitects%2BDaughter;" vertex="1" parent="6HO6c__39NX_If_ZyWu6-38">
          <mxGeometry x="5" y="70" width="70" height="30" as="geometry" />
        </mxCell>
        <mxCell id="6HO6c__39NX_If_ZyWu6-40" value="" style="swimlane;startSize=0;sketch=1;hachureGap=4;jiggle=2;curveFitting=1;fontFamily=Architects Daughter;fontSource=https%3A%2F%2Ffonts.googleapis.com%2Fcss%3Ffamily%3DArchitects%2BDaughter;fillColor=#d80073;fontColor=#ffffff;strokeColor=#A50040;" vertex="1" parent="6HO6c__39NX_If_ZyWu6-1">
          <mxGeometry x="550" y="130" width="100" height="240" as="geometry" />
        </mxCell>
        <mxCell id="6HO6c__39NX_If_ZyWu6-41" value="&lt;div&gt;Maria&lt;/div&gt;&lt;div&gt;Maria Alice&lt;/div&gt;&lt;div&gt;Maria Cecília&lt;/div&gt;&lt;div&gt;Maria Clara&lt;/div&gt;&lt;div&gt;Maria Eduarda&lt;/div&gt;&lt;div&gt;Maria Elisa&lt;/div&gt;&lt;div&gt;Maria Fernanda&lt;/div&gt;&lt;div&gt;Maria Helena&lt;/div&gt;&lt;div&gt;Maria Heloísa&lt;/div&gt;&lt;div&gt;Maria Isis&lt;/div&gt;&lt;div&gt;Maria Júlia&lt;/div&gt;&lt;div&gt;Maria Laura&lt;/div&gt;&lt;div&gt;Maria Liz&lt;/div&gt;&lt;div&gt;Maria Luísa&lt;/div&gt;&lt;div&gt;Maria Valentina&lt;/div&gt;&lt;div&gt;Maria Vitória&lt;/div&gt;" style="text;html=1;align=center;verticalAlign=middle;whiteSpace=wrap;rounded=0;fontFamily=Architects Daughter;fontSource=https%3A%2F%2Ffonts.googleapis.com%2Fcss%3Ffamily%3DArchitects%2BDaughter;" vertex="1" parent="6HO6c__39NX_If_ZyWu6-40">
          <mxGeometry x="5" y="105" width="95" height="30" as="geometry" />
        </mxCell>
        <mxCell id="6HO6c__39NX_If_ZyWu6-42" value="" style="swimlane;startSize=0;sketch=1;hachureGap=4;jiggle=2;curveFitting=1;fontFamily=Architects Daughter;fontSource=https%3A%2F%2Ffonts.googleapis.com%2Fcss%3Ffamily%3DArchitects%2BDaughter;fillColor=#d80073;fontColor=#ffffff;strokeColor=#A50040;" vertex="1" parent="6HO6c__39NX_If_ZyWu6-1">
          <mxGeometry x="650" y="130" width="80" height="180" as="geometry" />
        </mxCell>
        <mxCell id="6HO6c__39NX_If_ZyWu6-43" value="&lt;div&gt;Maitê&lt;/div&gt;&lt;div&gt;Malu&lt;/div&gt;&lt;div&gt;Manuela&lt;/div&gt;&lt;div&gt;Mariah&lt;/div&gt;&lt;div&gt;Mariana&lt;/div&gt;&lt;div&gt;Marina&lt;/div&gt;&lt;div&gt;Maya&lt;/div&gt;&lt;div&gt;Melina&lt;/div&gt;&lt;div&gt;Melinda&lt;/div&gt;&lt;div&gt;Melissa&lt;/div&gt;&lt;div&gt;Milena&lt;/div&gt;&lt;div&gt;Mirella&lt;/div&gt;" style="text;html=1;align=center;verticalAlign=middle;whiteSpace=wrap;rounded=0;fontFamily=Architects Daughter;fontSource=https%3A%2F%2Ffonts.googleapis.com%2Fcss%3Ffamily%3DArchitects%2BDaughter;" vertex="1" parent="6HO6c__39NX_If_ZyWu6-42">
          <mxGeometry x="5" y="77" width="70" height="30" as="geometry" />
        </mxCell>
        <mxCell id="6HO6c__39NX_If_ZyWu6-44" value="A" style="text;html=1;align=center;verticalAlign=middle;whiteSpace=wrap;rounded=0;fontFamily=Architects Daughter;fontSource=https%3A%2F%2Ffonts.googleapis.com%2Fcss%3Ffamily%3DArchitects%2BDaughter;fontSize=18;" vertex="1" parent="6HO6c__39NX_If_ZyWu6-1">
          <mxGeometry x="-40" y="-70" width="80" height="30" as="geometry" />
        </mxCell>
        <mxCell id="6HO6c__39NX_If_ZyWu6-45" value="B-C" style="text;html=1;align=center;verticalAlign=middle;whiteSpace=wrap;rounded=0;fontFamily=Architects Daughter;fontSource=https%3A%2F%2Ffonts.googleapis.com%2Fcss%3Ffamily%3DArchitects%2BDaughter;fontSize=18;" vertex="1" parent="6HO6c__39NX_If_ZyWu6-1">
          <mxGeometry x="40" y="-70" width="80" height="30" as="geometry" />
        </mxCell>
        <mxCell id="6HO6c__39NX_If_ZyWu6-46" value="D" style="text;html=1;align=center;verticalAlign=middle;whiteSpace=wrap;rounded=0;fontFamily=Architects Daughter;fontSource=https%3A%2F%2Ffonts.googleapis.com%2Fcss%3Ffamily%3DArchitects%2BDaughter;fontSize=18;" vertex="1" parent="6HO6c__39NX_If_ZyWu6-1">
          <mxGeometry x="120" y="-70" width="80" height="30" as="geometry" />
        </mxCell>
        <mxCell id="6HO6c__39NX_If_ZyWu6-47" value="E-F" style="text;html=1;align=center;verticalAlign=middle;whiteSpace=wrap;rounded=0;fontFamily=Architects Daughter;fontSource=https%3A%2F%2Ffonts.googleapis.com%2Fcss%3Ffamily%3DArchitects%2BDaughter;fontSize=18;" vertex="1" parent="6HO6c__39NX_If_ZyWu6-1">
          <mxGeometry x="200" y="-70" width="80" height="30" as="geometry" />
        </mxCell>
        <mxCell id="6HO6c__39NX_If_ZyWu6-48" value="G-H-I" style="text;html=1;align=center;verticalAlign=middle;whiteSpace=wrap;rounded=0;fontFamily=Architects Daughter;fontSource=https%3A%2F%2Ffonts.googleapis.com%2Fcss%3Ffamily%3DArchitects%2BDaughter;fontSize=18;" vertex="1" parent="6HO6c__39NX_If_ZyWu6-1">
          <mxGeometry x="280" y="-70" width="80" height="30" as="geometry" />
        </mxCell>
        <mxCell id="6HO6c__39NX_If_ZyWu6-49" value="J" style="text;html=1;align=center;verticalAlign=middle;whiteSpace=wrap;rounded=0;fontFamily=Architects Daughter;fontSource=https%3A%2F%2Ffonts.googleapis.com%2Fcss%3Ffamily%3DArchitects%2BDaughter;fontSize=18;" vertex="1" parent="6HO6c__39NX_If_ZyWu6-1">
          <mxGeometry x="370" y="-70" width="80" height="30" as="geometry" />
        </mxCell>
        <mxCell id="6HO6c__39NX_If_ZyWu6-50" value="L" style="text;html=1;align=center;verticalAlign=middle;whiteSpace=wrap;rounded=0;fontFamily=Architects Daughter;fontSource=https%3A%2F%2Ffonts.googleapis.com%2Fcss%3Ffamily%3DArchitects%2BDaughter;fontSize=18;" vertex="1" parent="6HO6c__39NX_If_ZyWu6-1">
          <mxGeometry x="-40" y="300" width="80" height="30" as="geometry" />
        </mxCell>
        <mxCell id="6HO6c__39NX_If_ZyWu6-51" value="M-N" style="text;html=1;align=center;verticalAlign=middle;whiteSpace=wrap;rounded=0;fontFamily=Architects Daughter;fontSource=https%3A%2F%2Ffonts.googleapis.com%2Fcss%3Ffamily%3DArchitects%2BDaughter;fontSize=18;" vertex="1" parent="6HO6c__39NX_If_ZyWu6-1">
          <mxGeometry x="40" y="300" width="80" height="30" as="geometry" />
        </mxCell>
        <mxCell id="6HO6c__39NX_If_ZyWu6-52" value="O-P-R" style="text;html=1;align=center;verticalAlign=middle;whiteSpace=wrap;rounded=0;fontFamily=Architects Daughter;fontSource=https%3A%2F%2Ffonts.googleapis.com%2Fcss%3Ffamily%3DArchitects%2BDaughter;fontSize=18;" vertex="1" parent="6HO6c__39NX_If_ZyWu6-1">
          <mxGeometry x="120" y="300" width="80" height="30" as="geometry" />
        </mxCell>
        <mxCell id="6HO6c__39NX_If_ZyWu6-53" value="S-T" style="text;html=1;align=center;verticalAlign=middle;whiteSpace=wrap;rounded=0;fontFamily=Architects Daughter;fontSource=https%3A%2F%2Ffonts.googleapis.com%2Fcss%3Ffamily%3DArchitects%2BDaughter;fontSize=18;" vertex="1" parent="6HO6c__39NX_If_ZyWu6-1">
          <mxGeometry x="200" y="300" width="80" height="30" as="geometry" />
        </mxCell>
        <mxCell id="6HO6c__39NX_If_ZyWu6-54" value="V-Y" style="text;html=1;align=center;verticalAlign=middle;whiteSpace=wrap;rounded=0;fontFamily=Architects Daughter;fontSource=https%3A%2F%2Ffonts.googleapis.com%2Fcss%3Ffamily%3DArchitects%2BDaughter;fontSize=18;" vertex="1" parent="6HO6c__39NX_If_ZyWu6-1">
          <mxGeometry x="280" y="300" width="80" height="30" as="geometry" />
        </mxCell>
        <mxCell id="6HO6c__39NX_If_ZyWu6-55" value="Ana" style="text;html=1;align=center;verticalAlign=middle;whiteSpace=wrap;rounded=0;fontFamily=Architects Daughter;fontSource=https%3A%2F%2Ffonts.googleapis.com%2Fcss%3Ffamily%3DArchitects%2BDaughter;fontSize=18;" vertex="1" parent="6HO6c__39NX_If_ZyWu6-1">
          <mxGeometry x="470" y="-70" width="80" height="30" as="geometry" />
        </mxCell>
        <mxCell id="6HO6c__39NX_If_ZyWu6-56" value="A" style="text;html=1;align=center;verticalAlign=middle;whiteSpace=wrap;rounded=0;fontFamily=Architects Daughter;fontSource=https%3A%2F%2Ffonts.googleapis.com%2Fcss%3Ffamily%3DArchitects%2BDaughter;fontSize=18;" vertex="1" parent="6HO6c__39NX_If_ZyWu6-1">
          <mxGeometry x="550" y="-70" width="80" height="30" as="geometry" />
        </mxCell>
        <mxCell id="6HO6c__39NX_If_ZyWu6-57" value="B-C" style="text;html=1;align=center;verticalAlign=middle;whiteSpace=wrap;rounded=0;fontFamily=Architects Daughter;fontSource=https%3A%2F%2Ffonts.googleapis.com%2Fcss%3Ffamily%3DArchitects%2BDaughter;fontSize=18;" vertex="1" parent="6HO6c__39NX_If_ZyWu6-1">
          <mxGeometry x="630" y="-70" width="80" height="30" as="geometry" />
        </mxCell>
        <mxCell id="6HO6c__39NX_If_ZyWu6-58" value="D-E-G" style="text;html=1;align=center;verticalAlign=middle;whiteSpace=wrap;rounded=0;fontFamily=Architects Daughter;fontSource=https%3A%2F%2Ffonts.googleapis.com%2Fcss%3Ffamily%3DArchitects%2BDaughter;fontSize=18;" vertex="1" parent="6HO6c__39NX_If_ZyWu6-1">
          <mxGeometry x="710" y="-70" width="80" height="30" as="geometry" />
        </mxCell>
        <mxCell id="6HO6c__39NX_If_ZyWu6-59" value="H-I-J" style="text;html=1;align=center;verticalAlign=middle;whiteSpace=wrap;rounded=0;fontFamily=Architects Daughter;fontSource=https%3A%2F%2Ffonts.googleapis.com%2Fcss%3Ffamily%3DArchitects%2BDaughter;fontSize=18;" vertex="1" parent="6HO6c__39NX_If_ZyWu6-1">
          <mxGeometry x="790" y="-70" width="80" height="30" as="geometry" />
        </mxCell>
        <mxCell id="6HO6c__39NX_If_ZyWu6-60" value="L" style="text;html=1;align=center;verticalAlign=middle;whiteSpace=wrap;rounded=0;fontFamily=Architects Daughter;fontSource=https%3A%2F%2Ffonts.googleapis.com%2Fcss%3Ffamily%3DArchitects%2BDaughter;fontSize=18;" vertex="1" parent="6HO6c__39NX_If_ZyWu6-1">
          <mxGeometry x="470" y="300" width="80" height="30" as="geometry" />
        </mxCell>
        <mxCell id="6HO6c__39NX_If_ZyWu6-61" value="Maria" style="text;html=1;align=center;verticalAlign=middle;whiteSpace=wrap;rounded=0;fontFamily=Architects Daughter;fontSource=https%3A%2F%2Ffonts.googleapis.com%2Fcss%3Ffamily%3DArchitects%2BDaughter;fontSize=18;" vertex="1" parent="6HO6c__39NX_If_ZyWu6-1">
          <mxGeometry x="560" y="370" width="80" height="30" as="geometry" />
        </mxCell>
        <mxCell id="6HO6c__39NX_If_ZyWu6-62" value="M" style="text;html=1;align=center;verticalAlign=middle;whiteSpace=wrap;rounded=0;fontFamily=Architects Daughter;fontSource=https%3A%2F%2Ffonts.googleapis.com%2Fcss%3Ffamily%3DArchitects%2BDaughter;fontSize=18;" vertex="1" parent="6HO6c__39NX_If_ZyWu6-1">
          <mxGeometry x="650" y="310" width="80" height="30" as="geometry" />
        </mxCell>
        <mxCell id="6HO6c__39NX_If_ZyWu6-63" value="N-O-P-R" style="text;html=1;align=center;verticalAlign=middle;whiteSpace=wrap;rounded=0;fontFamily=Architects Daughter;fontSource=https%3A%2F%2Ffonts.googleapis.com%2Fcss%3Ffamily%3DArchitects%2BDaughter;fontSize=18;" vertex="1" parent="6HO6c__39NX_If_ZyWu6-1">
          <mxGeometry x="730" y="300" width="80" height="30" as="geometry" />
        </mxCell>
        <mxCell id="6HO6c__39NX_If_ZyWu6-64" value="S-V-Y-Z" style="text;html=1;align=center;verticalAlign=middle;whiteSpace=wrap;rounded=0;fontFamily=Architects Daughter;fontSource=https%3A%2F%2Ffonts.googleapis.com%2Fcss%3Ffamily%3DArchitects%2BDaughter;fontSize=18;" vertex="1" parent="6HO6c__39NX_If_ZyWu6-1">
          <mxGeometry x="810" y="300" width="80" height="30" as="geometry" />
        </mxCell>
        <mxCell id="6HO6c__39NX_If_ZyWu6-65" value="" style="endArrow=none;html=1;rounded=0;sketch=1;hachureGap=4;jiggle=2;curveFitting=1;fontFamily=Architects Daughter;fontSource=https%3A%2F%2Ffonts.googleapis.com%2Fcss%3Ffamily%3DArchitects%2BDaughter;fontStyle=0;endSize=6;strokeWidth=3;fillColor=#f5f5f5;strokeColor=#666666;" edge="1" parent="6HO6c__39NX_If_ZyWu6-1">
          <mxGeometry width="50" height="50" relative="1" as="geometry">
            <mxPoint x="465" y="380" as="sourcePoint" />
            <mxPoint x="465" y="-160" as="targetPoint" />
          </mxGeometry>
        </mxCell>
        <mxCell id="6HO6c__39NX_If_ZyWu6-66" value="Masculinos" style="ellipse;shape=cloud;whiteSpace=wrap;html=1;sketch=1;hachureGap=4;jiggle=2;curveFitting=1;fontFamily=Architects Daughter;fontSource=https%3A%2F%2Ffonts.googleapis.com%2Fcss%3Ffamily%3DArchitects%2BDaughter;fillColor=#dae8fc;strokeColor=#6c8ebf;" vertex="1" parent="6HO6c__39NX_If_ZyWu6-1">
          <mxGeometry x="130" y="-160" width="120" height="80" as="geometry" />
        </mxCell>
        <mxCell id="6HO6c__39NX_If_ZyWu6-67" value="Femininos" style="ellipse;shape=cloud;whiteSpace=wrap;html=1;sketch=1;hachureGap=4;jiggle=2;curveFitting=1;fontFamily=Architects Daughter;fontSource=https%3A%2F%2Ffonts.googleapis.com%2Fcss%3Ffamily%3DArchitects%2BDaughter;fillColor=#f8cecc;strokeColor=#b85450;" vertex="1" parent="6HO6c__39NX_If_ZyWu6-1">
          <mxGeometry x="620" y="-160" width="120" height="80" as="geometry" />
        </mxCell>
      </root>
    </mxGraphModel>
  </diagram>
</mxfile>
